<svg xmlns="http://www.w3.org/2000/svg" xmlns:xlink="http://www.w3.org/1999/xlink" width="500" zoomAndPan="magnify" viewBox="0 0 375 374.999991" height="500" preserveAspectRatio="xMidYMid meet" version="1.0"><defs><clipPath id="616226a82e"><path d="M 0 14 L 375 14 L 375 362.671875 L 0 362.671875 Z M 0 14 " clip-rule="nonzero"/></clipPath></defs><g clip-path="url(#616226a82e)"><path fill="#000000" d="M 152.484375 228.144531 C 142.253906 238.378906 140.644531 252.789062 148.808594 260.957031 C 150.5625 262.660156 152.578125 263.960938 154.851562 264.855469 C 157.128906 265.75 159.488281 266.171875 161.933594 266.121094 C 163.15625 266.121094 164.371094 266.019531 165.578125 265.824219 C 168.628906 265.265625 171.515625 264.257812 174.25 262.800781 C 176.984375 261.34375 179.429688 259.503906 181.589844 257.28125 C 183.808594 255.121094 185.648438 252.675781 187.105469 249.941406 C 188.566406 247.207031 189.570312 244.316406 190.128906 241.265625 C 190.421875 239.777344 190.535156 238.273438 190.46875 236.753906 C 190.402344 235.234375 190.160156 233.746094 189.738281 232.285156 C 189.3125 230.828125 188.722656 229.4375 187.96875 228.117188 C 187.210938 226.800781 186.3125 225.589844 185.265625 224.488281 C 177.121094 216.296875 162.710938 217.914062 152.484375 228.144531 Z M 176.113281 238.976562 C 175.792969 240.546875 175.242188 242.035156 174.464844 243.441406 C 173.691406 244.84375 172.722656 246.101562 171.5625 247.210938 C 170.453125 248.371094 169.195312 249.339844 167.792969 250.117188 C 166.386719 250.894531 164.898438 251.445312 163.328125 251.765625 C 162.558594 251.949219 161.789062 251.964844 161.011719 251.8125 C 160.238281 251.660156 159.527344 251.351562 158.886719 250.890625 C 156.808594 248.808594 157.960938 242.816406 162.566406 238.210938 C 163.824219 236.855469 165.285156 235.777344 166.945312 234.972656 C 168.609375 234.164062 170.359375 233.6875 172.199219 233.539062 C 173.339844 233.460938 174.339844 233.792969 175.207031 234.535156 C 175.671875 235.171875 175.984375 235.878906 176.144531 236.65625 C 176.300781 237.429688 176.292969 238.203125 176.113281 238.976562 Z M 165.75 128.367188 C 164.242188 128.664062 162.761719 129.070312 161.3125 129.585938 C 159.863281 130.101562 158.460938 130.722656 157.101562 131.445312 C 155.742188 132.167969 154.445312 132.988281 153.210938 133.902344 C 151.972656 134.820312 150.8125 135.820312 149.722656 136.910156 C 148.636719 138 147.636719 139.160156 146.71875 140.398438 C 145.804688 141.632812 144.984375 142.929688 144.261719 144.289062 C 143.535156 145.648438 142.917969 147.050781 142.402344 148.5 C 141.886719 149.949219 141.480469 151.429688 141.183594 152.941406 C 140.890625 154.433594 140.777344 155.9375 140.84375 157.453125 C 140.910156 158.972656 141.152344 160.460938 141.578125 161.921875 C 142 163.382812 142.589844 164.769531 143.34375 166.089844 C 144.101562 167.40625 145 168.617188 146.046875 169.71875 C 147.800781 171.425781 149.816406 172.722656 152.09375 173.617188 C 154.367188 174.511719 156.726562 174.9375 159.171875 174.882812 C 160.394531 174.882812 161.613281 174.78125 162.820312 174.585938 C 165.867188 174.027344 168.757812 173.023438 171.488281 171.5625 C 174.222656 170.105469 176.667969 168.265625 178.828125 166.042969 C 181.050781 163.882812 182.886719 161.4375 184.347656 158.703125 C 185.804688 155.96875 186.8125 153.078125 187.367188 150.03125 C 187.535156 149.289062 187.65625 148.539062 187.726562 147.78125 C 187.800781 147.023438 187.824219 146.265625 187.800781 145.503906 C 187.777344 144.746094 187.707031 143.988281 187.585938 143.238281 C 187.46875 142.484375 187.304688 141.746094 187.09375 141.015625 C 186.878906 140.285156 186.625 139.570312 186.324219 138.871094 C 186.019531 138.171875 185.675781 137.496094 185.289062 136.84375 C 184.902344 136.1875 184.476562 135.558594 184.011719 134.957031 C 183.542969 134.355469 183.042969 133.789062 182.503906 133.25 C 181.96875 132.710938 181.398438 132.210938 180.796875 131.742188 C 180.195312 131.277344 179.566406 130.851562 178.914062 130.464844 C 178.257812 130.078125 177.582031 129.734375 176.882812 129.429688 C 176.1875 129.128906 175.472656 128.871094 174.742188 128.660156 C 174.011719 128.449219 173.269531 128.285156 172.519531 128.164062 C 171.769531 128.046875 171.011719 127.976562 170.253906 127.953125 C 169.492188 127.929688 168.734375 127.953125 167.976562 128.027344 C 167.21875 128.097656 166.472656 128.21875 165.730469 128.386719 Z M 173.339844 147.738281 C 173.015625 149.308594 172.46875 150.796875 171.691406 152.203125 C 170.914062 153.609375 169.945312 154.863281 168.785156 155.972656 C 167.675781 157.132812 166.421875 158.101562 165.015625 158.878906 C 163.613281 159.65625 162.125 160.207031 160.550781 160.527344 C 160.179688 160.683594 159.792969 160.785156 159.390625 160.824219 C 158.988281 160.867188 158.585938 160.847656 158.191406 160.769531 C 157.792969 160.691406 157.417969 160.554688 157.0625 160.367188 C 156.703125 160.175781 156.382812 159.9375 156.097656 159.648438 C 155.8125 159.363281 155.574219 159.039062 155.382812 158.683594 C 155.195312 158.324219 155.0625 157.949219 154.984375 157.550781 C 154.910156 157.15625 154.890625 156.753906 154.933594 156.351562 C 154.976562 155.949219 155.074219 155.5625 155.234375 155.191406 C 155.589844 153.628906 156.15625 152.152344 156.929688 150.75 C 157.707031 149.351562 158.660156 148.085938 159.789062 146.953125 C 160.921875 145.820312 162.1875 144.867188 163.585938 144.09375 C 164.984375 143.320312 166.464844 142.753906 168.023438 142.394531 C 168.488281 142.320312 168.957031 142.285156 169.429688 142.28125 C 170.574219 142.203125 171.589844 142.535156 172.46875 143.273438 C 172.929688 143.921875 173.234375 144.632812 173.382812 145.414062 C 173.535156 146.195312 173.515625 146.96875 173.324219 147.742188 Z M 120.300781 183.632812 L 212.964844 196.445312 C 213.40625 196.503906 213.839844 196.605469 214.261719 196.75 C 214.683594 196.894531 215.089844 197.074219 215.480469 197.292969 C 215.867188 197.511719 216.230469 197.765625 216.574219 198.054688 C 216.914062 198.339844 217.226562 198.660156 217.507812 199.003906 C 217.789062 199.351562 218.035156 199.722656 218.246094 200.113281 C 218.460938 200.507812 218.632812 200.914062 218.769531 201.339844 C 218.902344 201.765625 218.996094 202.203125 219.050781 202.644531 C 219.105469 203.085938 219.113281 203.53125 219.085938 203.976562 C 219.054688 204.421875 218.984375 204.863281 218.871094 205.292969 C 218.757812 205.726562 218.605469 206.144531 218.414062 206.546875 C 218.222656 206.949219 217.996094 207.332031 217.730469 207.691406 C 217.46875 208.050781 217.175781 208.386719 216.847656 208.691406 C 216.523438 208.996094 216.171875 209.265625 215.792969 209.507812 C 215.417969 209.746094 215.019531 209.945312 214.605469 210.109375 C 214.191406 210.277344 213.765625 210.398438 213.328125 210.484375 C 212.886719 210.566406 212.445312 210.609375 212 210.613281 C 211.671875 210.613281 211.34375 210.589844 211.015625 210.542969 L 118.351562 197.75 C 117.890625 197.6875 117.4375 197.578125 116.996094 197.425781 C 116.554688 197.273438 116.132812 197.078125 115.730469 196.839844 C 115.324219 196.605469 114.949219 196.332031 114.601562 196.019531 C 114.25 195.710938 113.933594 195.367188 113.652344 194.996094 C 113.371094 194.625 113.128906 194.226562 112.921875 193.804688 C 112.71875 193.386719 112.558594 192.949219 112.441406 192.496094 C 112.320312 192.046875 112.25 191.585938 112.222656 191.121094 C 112.195312 190.652344 112.210938 190.1875 112.277344 189.726562 C 112.339844 189.261719 112.449219 188.808594 112.601562 188.367188 C 112.753906 187.925781 112.949219 187.503906 113.183594 187.101562 C 113.421875 186.695312 113.695312 186.320312 114.003906 185.972656 C 114.316406 185.621094 114.65625 185.304688 115.027344 185.023438 C 115.402344 184.742188 115.796875 184.5 116.21875 184.292969 C 116.636719 184.089844 117.074219 183.929688 117.527344 183.8125 C 117.980469 183.691406 118.4375 183.621094 118.90625 183.59375 C 119.371094 183.5625 119.835938 183.582031 120.300781 183.644531 Z M 180.027344 73.273438 C 179.699219 72.941406 179.339844 72.648438 178.949219 72.386719 C 178.5625 72.128906 178.152344 71.910156 177.71875 71.730469 C 177.289062 71.550781 176.84375 71.417969 176.386719 71.324219 C 175.925781 71.234375 175.464844 71.1875 174.996094 71.1875 C 174.53125 71.1875 174.066406 71.234375 173.609375 71.324219 C 173.152344 71.417969 172.707031 71.550781 172.273438 71.730469 C 171.84375 71.910156 171.433594 72.128906 171.046875 72.386719 C 170.65625 72.648438 170.296875 72.941406 169.964844 73.273438 L 41.882812 201.390625 C 41.554688 201.722656 41.257812 202.082031 41 202.46875 C 40.738281 202.859375 40.519531 203.269531 40.339844 203.699219 C 40.164062 204.132812 40.027344 204.578125 39.9375 205.035156 C 39.84375 205.492188 39.800781 205.957031 39.800781 206.421875 C 39.800781 206.890625 39.84375 207.351562 39.9375 207.8125 C 40.027344 208.269531 40.164062 208.714844 40.339844 209.144531 C 40.519531 209.578125 40.738281 209.988281 41 210.375 C 41.257812 210.765625 41.554688 211.125 41.882812 211.453125 L 151.320312 320.925781 C 151.648438 321.253906 152.007812 321.550781 152.398438 321.808594 C 152.785156 322.070312 153.195312 322.289062 153.628906 322.46875 C 154.058594 322.644531 154.503906 322.78125 154.960938 322.871094 C 155.421875 322.964844 155.882812 323.007812 156.351562 323.007812 C 156.816406 323.007812 157.28125 322.964844 157.738281 322.871094 C 158.195312 322.78125 158.640625 322.644531 159.074219 322.46875 C 159.503906 322.289062 159.914062 322.070312 160.304688 321.808594 C 160.691406 321.550781 161.050781 321.253906 161.382812 320.925781 L 289.464844 192.808594 C 289.796875 192.476562 290.089844 192.117188 290.351562 191.726562 C 290.609375 191.339844 290.828125 190.929688 291.007812 190.496094 C 291.1875 190.066406 291.320312 189.621094 291.410156 189.164062 C 291.503906 188.703125 291.546875 188.242188 291.546875 187.773438 C 291.546875 187.308594 291.503906 186.84375 291.410156 186.386719 C 291.320312 185.929688 291.1875 185.484375 291.007812 185.050781 C 290.828125 184.621094 290.609375 184.210938 290.351562 183.820312 C 290.089844 183.433594 289.796875 183.074219 289.464844 182.742188 Z M 156.335938 305.824219 L 56.964844 206.410156 L 174.980469 88.359375 L 274.355469 187.769531 Z M 372.214844 166.429688 L 335.636719 84.21875 C 339.84375 79.949219 343.414062 75.195312 346.339844 69.960938 C 349.269531 64.726562 351.453125 59.199219 352.894531 53.378906 C 355.621094 40.921875 353.105469 30.074219 345.816406 22.773438 C 338.53125 15.46875 327.671875 12.960938 315.21875 15.695312 C 309.582031 17.082031 304.214844 19.171875 299.125 21.96875 C 294.035156 24.761719 289.390625 28.167969 285.195312 32.183594 L 196.039062 17.628906 C 194.242188 17.355469 192.441406 17.296875 190.628906 17.449219 C 188.820312 17.605469 187.054688 17.96875 185.332031 18.542969 C 183.609375 19.121094 181.976562 19.886719 180.433594 20.847656 C 178.894531 21.8125 177.488281 22.941406 176.214844 24.234375 L 7.117188 193.375 C 5.042969 195.421875 3.414062 197.777344 2.226562 200.441406 C 1.039062 203.101562 0.378906 205.890625 0.242188 208.800781 C 0.164062 210.242188 0.238281 211.675781 0.464844 213.101562 C 0.6875 214.527344 1.058594 215.917969 1.574219 217.265625 C 2.089844 218.613281 2.742188 219.894531 3.523438 221.105469 C 4.308594 222.320312 5.210938 223.4375 6.230469 224.460938 L 138.308594 356.574219 C 139.277344 357.535156 140.332031 358.390625 141.46875 359.144531 C 142.605469 359.898438 143.808594 360.53125 145.070312 361.046875 C 146.335938 361.558594 147.636719 361.945312 148.976562 362.203125 C 150.316406 362.457031 151.671875 362.582031 153.035156 362.570312 C 154.558594 362.5625 156.066406 362.40625 157.558594 362.101562 C 159.050781 361.796875 160.5 361.351562 161.902344 360.757812 C 163.304688 360.167969 164.640625 359.449219 165.902344 358.59375 C 167.164062 357.742188 168.328125 356.773438 169.402344 355.691406 L 204.214844 320.867188 L 264.269531 347.238281 C 266.820312 348.542969 269.53125 349.191406 272.398438 349.183594 C 274.195312 349.160156 275.957031 348.898438 277.683594 348.394531 C 279.410156 347.894531 281.039062 347.171875 282.570312 346.226562 C 284.101562 345.28125 285.476562 344.152344 286.699219 342.832031 C 287.925781 341.515625 288.949219 340.058594 289.777344 338.460938 L 371.675781 184.394531 C 372.421875 183.023438 373 181.582031 373.40625 180.078125 C 373.8125 178.570312 374.039062 177.035156 374.085938 175.476562 C 374.132812 173.914062 374 172.371094 373.683594 170.84375 C 373.367188 169.3125 372.878906 167.84375 372.21875 166.429688 Z M 318.277344 29.613281 C 322.640625 28.65625 330.707031 27.804688 335.753906 32.851562 C 340.796875 37.898438 339.949219 45.96875 338.992188 50.328125 C 338.121094 53.914062 336.863281 57.355469 335.222656 60.660156 C 333.582031 63.960938 331.597656 67.042969 329.269531 69.902344 L 326.539062 53.160156 C 326.375 52.097656 326.132812 51.054688 325.804688 50.035156 C 325.476562 49.011719 325.070312 48.023438 324.585938 47.066406 C 324.101562 46.109375 323.542969 45.195312 322.914062 44.328125 C 322.285156 43.457031 321.589844 42.644531 320.832031 41.882812 C 320.074219 41.125 319.261719 40.429688 318.390625 39.800781 C 317.523438 39.171875 316.609375 38.613281 315.652344 38.128906 C 314.695312 37.644531 313.707031 37.238281 312.6875 36.910156 C 311.664062 36.582031 310.625 36.339844 309.5625 36.175781 L 304.476562 35.347656 C 308.761719 32.671875 313.363281 30.757812 318.28125 29.609375 Z M 159.3125 345.636719 C 158.976562 346.023438 158.609375 346.371094 158.210938 346.6875 C 157.808594 347 157.382812 347.269531 156.929688 347.5 C 156.472656 347.730469 156.003906 347.917969 155.511719 348.054688 C 155.023438 348.191406 154.523438 348.28125 154.015625 348.324219 C 153.507812 348.363281 153.003906 348.355469 152.496094 348.296875 C 151.992188 348.238281 151.496094 348.132812 151.011719 347.980469 C 150.527344 347.824219 150.058594 347.625 149.613281 347.378906 C 149.167969 347.132812 148.75 346.847656 148.359375 346.519531 L 16.289062 214.390625 C 15.644531 213.726562 15.164062 212.960938 14.84375 212.09375 C 14.527344 211.226562 14.394531 210.332031 14.457031 209.410156 C 14.519531 208.28125 14.785156 207.203125 15.253906 206.171875 C 15.722656 205.144531 16.359375 204.234375 17.171875 203.449219 L 186.265625 34.304688 C 187.09375 33.457031 188.054688 32.796875 189.144531 32.324219 C 190.234375 31.855469 191.371094 31.605469 192.554688 31.582031 C 192.949219 31.582031 193.339844 31.613281 193.730469 31.671875 L 274.136719 44.808594 C 270.390625 50.097656 267.503906 55.820312 265.480469 61.980469 C 260.796875 63.328125 256.730469 65.726562 253.285156 69.179688 C 252.546875 69.914062 251.851562 70.683594 251.195312 71.496094 C 250.542969 72.304688 249.933594 73.148438 249.371094 74.023438 C 248.8125 74.898438 248.296875 75.804688 247.835938 76.734375 C 247.371094 77.667969 246.960938 78.621094 246.601562 79.601562 C 246.242188 80.578125 245.9375 81.570312 245.6875 82.582031 C 245.4375 83.589844 245.246094 84.613281 245.105469 85.644531 C 244.96875 86.675781 244.886719 87.710938 244.859375 88.753906 C 244.835938 89.792969 244.867188 90.832031 244.953125 91.867188 C 245.042969 92.90625 245.1875 93.933594 245.386719 94.957031 C 245.589844 95.976562 245.84375 96.984375 246.15625 97.980469 C 246.464844 98.972656 246.832031 99.945312 247.246094 100.898438 C 247.664062 101.851562 248.132812 102.78125 248.652344 103.683594 C 249.171875 104.585938 249.738281 105.457031 250.351562 106.296875 C 250.964844 107.136719 251.621094 107.941406 252.324219 108.710938 C 253.027344 109.480469 253.765625 110.207031 254.550781 110.894531 C 255.332031 111.582031 256.148438 112.226562 257 112.824219 C 257.851562 113.421875 258.730469 113.972656 259.644531 114.472656 C 260.554688 114.972656 261.492188 115.425781 262.453125 115.824219 C 263.414062 116.222656 264.394531 116.570312 265.390625 116.863281 C 266.390625 117.152344 267.402344 117.390625 268.425781 117.570312 C 269.453125 117.753906 270.484375 117.878906 271.523438 117.949219 C 272.558594 118.015625 273.597656 118.027344 274.640625 117.984375 C 275.679688 117.9375 276.710938 117.835938 277.742188 117.679688 C 278.769531 117.519531 279.785156 117.308594 280.792969 117.039062 C 281.796875 116.769531 282.785156 116.445312 283.753906 116.070312 C 284.722656 115.691406 285.671875 115.261719 286.59375 114.78125 C 287.515625 114.300781 288.410156 113.773438 289.277344 113.191406 C 290.140625 112.613281 290.972656 111.992188 291.769531 111.320312 C 292.566406 110.652344 293.324219 109.941406 294.042969 109.1875 C 294.761719 108.4375 295.4375 107.648438 296.070312 106.820312 C 296.703125 105.996094 297.292969 105.136719 297.832031 104.246094 C 298.371094 103.355469 298.859375 102.441406 299.296875 101.496094 C 299.738281 100.550781 300.121094 99.585938 300.457031 98.601562 C 300.789062 97.617188 301.070312 96.613281 301.292969 95.597656 C 301.515625 94.582031 301.683594 93.554688 301.796875 92.519531 C 301.910156 91.484375 301.964844 90.449219 301.964844 89.40625 C 301.960938 88.367188 301.902344 87.328125 301.789062 86.292969 C 301.671875 85.257812 301.503906 84.234375 301.277344 83.21875 C 301.050781 82.203125 300.765625 81.203125 300.429688 80.21875 C 300.09375 79.230469 299.707031 78.269531 299.265625 77.324219 C 298.824219 76.382812 298.332031 75.46875 297.789062 74.578125 C 297.25 73.691406 296.660156 72.832031 296.023438 72.007812 C 295.390625 71.183594 294.710938 70.398438 293.988281 69.648438 C 293.269531 68.898438 292.507812 68.1875 291.710938 67.519531 C 290.910156 66.855469 290.078125 66.234375 289.210938 65.65625 C 288.34375 65.082031 287.449219 64.554688 286.523438 64.074219 C 285.601562 63.597656 284.652344 63.171875 283.679688 62.796875 C 282.710938 62.421875 281.722656 62.101562 280.714844 61.835938 C 283.113281 56.546875 286.253906 51.742188 290.132812 47.421875 L 307.253906 50.21875 C 307.914062 50.3125 308.542969 50.511719 309.136719 50.808594 C 309.730469 51.105469 310.265625 51.492188 310.734375 51.964844 C 311.207031 52.433594 311.589844 52.96875 311.890625 53.5625 C 312.1875 54.160156 312.382812 54.789062 312.476562 55.445312 L 331.015625 169.011719 C 331.195312 170.394531 331.050781 171.746094 330.589844 173.058594 C 330.125 174.375 329.394531 175.515625 328.390625 176.484375 Z M 263.339844 79.253906 C 263.523438 81.808594 264.03125 84.296875 264.855469 86.722656 C 265.683594 89.144531 266.808594 91.421875 268.226562 93.554688 C 268.480469 93.953125 268.777344 94.324219 269.109375 94.664062 C 269.441406 95.003906 269.804688 95.308594 270.195312 95.574219 C 270.589844 95.84375 271.003906 96.070312 271.441406 96.253906 C 271.878906 96.4375 272.332031 96.578125 272.796875 96.671875 C 273.265625 96.765625 273.734375 96.8125 274.210938 96.8125 C 274.683594 96.8125 275.15625 96.761719 275.621094 96.667969 C 276.085938 96.574219 276.539062 96.433594 276.976562 96.25 C 277.414062 96.0625 277.828125 95.835938 278.222656 95.566406 C 278.613281 95.300781 278.972656 94.996094 279.304688 94.652344 C 279.636719 94.3125 279.929688 93.941406 280.1875 93.542969 C 280.445312 93.144531 280.660156 92.722656 280.832031 92.277344 C 281.003906 91.835938 281.132812 91.378906 281.214844 90.910156 C 281.292969 90.441406 281.328125 89.972656 281.316406 89.496094 C 281.300781 89.019531 281.242188 88.550781 281.136719 88.089844 C 281.027344 87.625 280.875 87.179688 280.679688 86.746094 C 280.480469 86.3125 280.246094 85.902344 279.964844 85.519531 C 279.054688 84.054688 278.382812 82.488281 277.949219 80.820312 C 277.519531 79.148438 277.34375 77.453125 277.425781 75.730469 C 278.015625 75.902344 278.589844 76.113281 279.152344 76.359375 C 279.714844 76.605469 280.257812 76.886719 280.78125 77.203125 C 281.308594 77.519531 281.808594 77.867188 282.289062 78.25 C 282.769531 78.632812 283.222656 79.042969 283.648438 79.484375 C 284.078125 79.921875 284.472656 80.390625 284.839844 80.882812 C 285.207031 81.375 285.539062 81.886719 285.835938 82.425781 C 286.136719 82.960938 286.398438 83.511719 286.628906 84.082031 C 286.855469 84.652344 287.046875 85.234375 287.195312 85.828125 C 287.347656 86.421875 287.460938 87.023438 287.535156 87.632812 C 287.609375 88.242188 287.644531 88.851562 287.636719 89.464844 C 287.632812 90.078125 287.589844 90.691406 287.503906 91.296875 C 287.417969 91.90625 287.296875 92.503906 287.132812 93.097656 C 286.96875 93.6875 286.769531 94.265625 286.53125 94.832031 C 286.292969 95.398438 286.019531 95.945312 285.710938 96.476562 C 285.402344 97.003906 285.0625 97.511719 284.6875 98 C 284.3125 98.484375 283.90625 98.945312 283.472656 99.375 C 282.800781 100.019531 282.078125 100.589844 281.296875 101.09375 C 280.515625 101.597656 279.695312 102.019531 278.832031 102.367188 C 277.96875 102.710938 277.082031 102.972656 276.171875 103.148438 C 275.261719 103.324219 274.339844 103.410156 273.410156 103.410156 C 272.484375 103.410156 271.5625 103.324219 270.652344 103.148438 C 269.742188 102.972656 268.855469 102.710938 267.992188 102.367188 C 267.128906 102.019531 266.308594 101.597656 265.527344 101.09375 C 264.746094 100.589844 264.023438 100.019531 263.351562 99.375 C 262.691406 98.714844 262.101562 97.996094 261.582031 97.21875 C 261.0625 96.445312 260.625 95.625 260.269531 94.761719 C 259.910156 93.898438 259.640625 93.007812 259.460938 92.089844 C 259.277344 91.175781 259.1875 90.25 259.1875 89.316406 C 259.1875 88.382812 259.277344 87.457031 259.460938 86.539062 C 259.640625 85.625 259.910156 84.734375 260.269531 83.871094 C 260.625 83.007812 261.0625 82.1875 261.582031 81.410156 C 262.101562 80.636719 262.691406 79.917969 263.351562 79.253906 Z M 359.082031 177.710938 L 277.1875 331.78125 C 277.054688 332.082031 276.898438 332.367188 276.714844 332.636719 C 276.53125 332.90625 276.320312 333.15625 276.089844 333.386719 C 275.855469 333.617188 275.605469 333.820312 275.332031 334.003906 C 275.058594 334.183594 274.773438 334.335938 274.472656 334.464844 C 274.171875 334.589844 273.859375 334.6875 273.542969 334.753906 C 273.222656 334.820312 272.898438 334.859375 272.570312 334.863281 C 272.246094 334.867188 271.921875 334.84375 271.597656 334.785156 C 271.277344 334.730469 270.964844 334.644531 270.65625 334.527344 L 214.988281 310.066406 L 338.472656 186.550781 C 339.765625 185.277344 340.894531 183.871094 341.855469 182.328125 C 342.820312 180.785156 343.585938 179.15625 344.160156 177.429688 C 344.734375 175.707031 345.101562 173.941406 345.257812 172.128906 C 345.414062 170.320312 345.355469 168.515625 345.082031 166.71875 L 338.320312 125.226562 L 359.347656 172.472656 C 359.71875 173.316406 359.882812 174.203125 359.835938 175.125 C 359.785156 176.046875 359.535156 176.910156 359.082031 177.714844 Z M 359.082031 177.710938 " fill-opacity="1" fill-rule="nonzero"/></g></svg>