<svg xmlns="http://www.w3.org/2000/svg" xmlns:xlink="http://www.w3.org/1999/xlink" width="500" zoomAndPan="magnify" viewBox="0 0 375 374.999991" height="500" preserveAspectRatio="xMidYMid meet" version="1.0"><defs><clipPath id="efa67e0519"><path d="M 0 2.34375 L 372 2.34375 L 372 372.84375 L 0 372.84375 Z M 0 2.34375 " clip-rule="nonzero"/></clipPath></defs><g clip-path="url(#efa67e0519)"><path fill="#000000" d="M 359.398438 84.527344 L 345.667969 24.949219 L 357.4375 7.210938 C 358.0625 6.269531 358.140625 5.011719 357.59375 3.992188 C 357.042969 2.972656 355.945312 2.34375 354.847656 2.34375 L 141.445312 2.34375 C 140.269531 2.34375 139.25 2.972656 138.699219 3.992188 C 138.152344 5.011719 138.230469 6.269531 138.855469 7.210938 L 150.625 24.949219 L 141.367188 65.140625 L 49.339844 65.140625 C 31.371094 65.140625 15.289062 75.109375 7.207031 91.199219 L 0.539062 104.546875 C 0.0703125 105.410156 0.0703125 106.507812 0.539062 107.371094 L 7.207031 120.714844 C 12.542969 131.46875 21.566406 139.476562 32.3125 143.636719 C 21.566406 147.796875 12.542969 155.804688 7.207031 166.558594 L 0.539062 179.902344 C 0.0703125 180.765625 0.0703125 181.863281 0.539062 182.726562 L 7.207031 196.070312 C 12.542969 206.824219 21.566406 214.832031 32.3125 218.992188 C 21.566406 223.152344 12.542969 231.160156 7.207031 241.914062 L 0.539062 255.257812 C 0.0703125 256.121094 0.0703125 257.21875 0.539062 258.082031 L 7.207031 271.425781 C 12.542969 282.179688 21.566406 290.1875 32.3125 294.347656 C 21.566406 298.507812 12.542969 306.515625 7.207031 317.269531 L 0.539062 330.613281 C 0.0703125 331.476562 0.0703125 332.574219 0.539062 333.4375 L 7.207031 346.785156 C 15.289062 362.875 31.371094 372.84375 49.339844 372.84375 L 354.847656 372.84375 C 356.023438 372.84375 357.042969 372.214844 357.59375 371.195312 C 358.140625 370.175781 358.0625 368.917969 357.4375 367.976562 L 345.667969 350.238281 L 359.398438 290.660156 C 374.929688 223.230469 374.929688 151.957031 359.398438 84.527344 Z M 285.804688 8.625 C 293.414062 8.625 299.691406 14.039062 301.183594 21.183594 L 279.527344 21.183594 L 279.527344 27.460938 L 301.417969 27.460938 C 301.105469 36.566406 299.378906 45.515625 296.238281 54.074219 L 287.765625 47.007812 C 286.589844 46.066406 284.941406 46.066406 283.765625 47.007812 L 275.292969 54.074219 C 272.234375 45.515625 270.429688 36.566406 270.113281 27.460938 L 273.175781 27.460938 L 273.175781 21.183594 L 270.347656 21.183594 C 271.917969 14.039062 278.195312 8.625 285.804688 8.625 Z M 282.589844 69.378906 C 280.785156 66.394531 279.214844 63.335938 277.804688 60.195312 L 285.804688 53.523438 L 320.324219 82.332031 L 320.324219 184.453125 L 251.285156 184.453125 L 251.285156 82.332031 L 272.78125 64.355469 C 274.117188 67.179688 275.605469 69.929688 277.175781 72.597656 L 283.058594 82.488281 L 288.472656 79.269531 Z M 12.855469 93.949219 C 19.839844 80.054688 33.804688 71.421875 49.339844 71.421875 L 139.878906 71.421875 L 136.894531 84.527344 C 135.484375 90.574219 134.226562 96.695312 133.050781 102.816406 L 8.464844 102.816406 Z M 12.855469 117.96875 L 8.464844 109.097656 L 131.953125 109.097656 C 130.148438 119.539062 128.738281 129.976562 127.636719 140.496094 L 49.339844 140.496094 C 33.804688 140.496094 19.839844 131.863281 12.855469 117.96875 Z M 12.855469 169.304688 C 19.839844 155.410156 33.804688 146.777344 49.339844 146.777344 L 127.011719 146.777344 C 126.070312 157.214844 125.519531 167.65625 125.285156 178.175781 L 8.386719 178.175781 Z M 12.855469 193.324219 L 8.464844 184.453125 L 125.285156 184.453125 C 125.207031 194.894531 125.519531 205.414062 126.148438 215.851562 L 49.339844 215.851562 C 33.804688 215.851562 19.839844 207.21875 12.855469 193.324219 Z M 12.855469 244.660156 C 19.839844 230.765625 33.804688 222.132812 49.339844 222.132812 L 126.539062 222.132812 C 127.324219 232.648438 128.5 243.089844 129.992188 253.53125 L 8.464844 253.53125 Z M 12.855469 268.679688 L 8.464844 259.808594 L 130.933594 259.808594 C 132.582031 270.171875 134.542969 280.453125 136.894531 290.660156 L 137.054688 291.207031 L 49.339844 291.207031 C 33.804688 291.207031 19.839844 282.574219 12.855469 268.679688 Z M 12.855469 320.015625 C 19.839844 306.121094 33.804688 297.488281 49.339844 297.488281 L 138.464844 297.488281 L 145.683594 328.886719 L 8.386719 328.886719 Z M 139.796875 366.5625 L 49.339844 366.5625 C 33.804688 366.5625 19.839844 357.929688 12.855469 344.035156 L 8.464844 335.164062 L 147.171875 335.164062 L 150.625 350.238281 Z M 339.78125 347.726562 L 310.910156 347.726562 L 310.910156 354.003906 L 340.644531 354.003906 L 349.039062 366.5625 L 147.332031 366.5625 L 155.726562 354.003906 L 179.105469 354.003906 L 179.105469 347.726562 L 156.511719 347.726562 L 143.015625 289.246094 C 127.636719 222.761719 127.636719 152.425781 143.015625 85.941406 L 156.511719 27.460938 L 179.105469 27.460938 L 179.105469 21.183594 L 155.648438 21.183594 L 147.253906 8.625 L 270.429688 8.625 C 267.054688 11.921875 264.777344 16.316406 264.074219 21.183594 L 248.148438 21.183594 L 248.148438 27.460938 L 263.917969 27.460938 C 264.308594 38.058594 266.425781 48.5 270.269531 58.3125 L 246.183594 78.40625 C 245.480469 79.035156 245.085938 79.898438 245.085938 80.839844 L 245.085938 187.59375 C 245.085938 189.320312 246.5 190.734375 248.226562 190.734375 L 323.542969 190.734375 C 325.269531 190.734375 326.679688 189.320312 326.679688 187.59375 L 326.679688 80.839844 C 326.679688 79.898438 326.289062 79.035156 325.582031 78.40625 L 301.496094 58.3125 C 305.734375 47.398438 307.851562 36.019531 307.851562 24.324219 C 307.851562 18.199219 305.339844 12.625 301.261719 8.625 L 349.121094 8.625 L 340.726562 21.183594 L 310.910156 21.183594 L 310.910156 27.460938 L 339.78125 27.460938 L 353.277344 85.941406 C 368.65625 152.425781 368.65625 222.761719 353.277344 289.246094 Z M 339.78125 347.726562 " fill-opacity="1" fill-rule="nonzero"/></g><path fill="#000000" d="M 185.382812 21.183594 L 210.488281 21.183594 L 210.488281 27.460938 L 185.382812 27.460938 Z M 185.382812 21.183594 " fill-opacity="1" fill-rule="nonzero"/><path fill="#000000" d="M 216.765625 21.183594 L 241.871094 21.183594 L 241.871094 27.460938 L 216.765625 27.460938 Z M 216.765625 21.183594 " fill-opacity="1" fill-rule="nonzero"/><path fill="#000000" d="M 185.382812 347.726562 L 210.488281 347.726562 L 210.488281 354.003906 L 185.382812 354.003906 Z M 185.382812 347.726562 " fill-opacity="1" fill-rule="nonzero"/><path fill="#000000" d="M 216.765625 347.726562 L 241.871094 347.726562 L 241.871094 354.003906 L 216.765625 354.003906 Z M 216.765625 347.726562 " fill-opacity="1" fill-rule="nonzero"/><path fill="#000000" d="M 248.148438 347.726562 L 273.253906 347.726562 L 273.253906 354.003906 L 248.148438 354.003906 Z M 248.148438 347.726562 " fill-opacity="1" fill-rule="nonzero"/><path fill="#000000" d="M 279.527344 347.726562 L 304.636719 347.726562 L 304.636719 354.003906 L 279.527344 354.003906 Z M 279.527344 347.726562 " fill-opacity="1" fill-rule="nonzero"/><path fill="#000000" d="M 264.308594 123.148438 C 263.757812 124.089844 263.679688 125.347656 264.230469 126.289062 C 264.777344 127.230469 265.800781 127.859375 266.976562 127.859375 L 276.390625 127.859375 L 276.390625 174.957031 L 282.667969 174.957031 L 282.667969 124.71875 C 282.667969 122.992188 281.253906 121.578125 279.527344 121.578125 L 272.546875 121.578125 L 285.804688 99.441406 L 299.066406 121.578125 L 292.082031 121.578125 C 290.355469 121.578125 288.945312 122.992188 288.945312 124.71875 L 288.945312 174.957031 L 295.21875 174.957031 L 295.21875 127.859375 L 304.636719 127.859375 C 305.734375 127.859375 306.832031 127.230469 307.378906 126.289062 C 307.929688 125.347656 307.929688 124.089844 307.300781 123.148438 L 288.472656 91.75 C 287.921875 90.808594 286.902344 90.257812 285.804688 90.257812 C 284.707031 90.257812 283.6875 90.808594 283.136719 91.75 Z M 264.308594 123.148438 " fill-opacity="1" fill-rule="nonzero"/><path fill="#000000" d="M 300.242188 200.386719 C 313.1875 213.890625 320.324219 231.628906 320.324219 250.390625 C 320.324219 290.1875 287.921875 322.605469 248.148438 322.605469 C 208.371094 322.605469 175.96875 290.1875 175.96875 250.390625 C 175.96875 214.125 203.035156 183.355469 238.890625 178.722656 L 238.105469 172.523438 C 199.113281 177.546875 169.691406 210.984375 169.691406 250.390625 C 169.691406 293.640625 204.917969 328.886719 248.148438 328.886719 C 291.375 328.886719 326.601562 293.640625 326.601562 250.390625 C 326.601562 230.058594 318.835938 210.75 304.714844 196.070312 Z M 300.242188 200.386719 " fill-opacity="1" fill-rule="nonzero"/><path fill="#000000" d="M 220.84375 202.351562 C 229.867188 211.378906 236.457031 222.054688 240.535156 233.671875 C 236.222656 228.253906 230.730469 223.9375 224.375 221.03125 C 213.3125 216.085938 200.601562 215.929688 189.460938 220.71875 C 187.972656 221.347656 187.1875 223.074219 187.734375 224.566406 L 191.109375 234.769531 C 194.953125 246.308594 203.503906 255.726562 214.566406 260.671875 C 220.214844 263.183594 226.257812 264.441406 232.375 264.441406 C 236.691406 264.441406 241.007812 263.8125 245.085938 262.558594 L 245.085938 306.90625 L 251.363281 306.90625 L 251.363281 262.714844 C 255.519531 263.96875 259.835938 264.597656 264.074219 264.597656 C 270.191406 264.597656 276.234375 263.34375 281.882812 260.832031 C 292.945312 255.886719 301.496094 246.386719 305.339844 234.925781 L 308.714844 224.722656 C 309.265625 223.152344 308.480469 221.503906 306.988281 220.875 C 295.847656 216.085938 283.136719 216.246094 272.074219 221.191406 C 265.71875 224.09375 260.148438 228.410156 255.914062 233.828125 C 259.914062 222.132812 266.582031 211.457031 275.605469 202.507812 L 271.132812 198.035156 C 260.070312 209.101562 252.226562 222.601562 248.226562 237.359375 C 244.222656 222.601562 236.378906 209.101562 225.316406 198.035156 Z M 254.5 248.976562 C 257.796875 239.007812 264.9375 231.082031 274.507812 226.839844 C 283.214844 222.917969 292.789062 222.523438 301.730469 225.585938 L 299.300781 232.964844 C 296.003906 242.933594 288.863281 250.859375 279.292969 255.101562 C 271.527344 258.554688 263.132812 259.339844 255.128906 257.296875 C 267.523438 252.273438 278.429688 244.03125 286.667969 233.515625 L 281.726562 229.667969 C 274.429688 239.007812 264.859375 246.386719 253.953125 251.019531 Z M 242.417969 250.941406 C 231.515625 246.308594 221.941406 238.929688 214.644531 229.589844 L 209.703125 233.433594 C 217.941406 243.953125 228.847656 252.195312 241.242188 257.21875 C 233.238281 259.261719 224.765625 258.554688 217.078125 255.023438 C 207.507812 250.703125 200.367188 242.855469 197.070312 232.886719 L 194.640625 225.507812 C 203.582031 222.445312 213.078125 222.917969 221.863281 226.761719 C 231.433594 231.082031 238.574219 238.929688 241.871094 248.898438 Z M 242.417969 250.941406 " fill-opacity="1" fill-rule="nonzero"/></svg>