<svg xmlns="http://www.w3.org/2000/svg" xmlns:xlink="http://www.w3.org/1999/xlink" width="500" zoomAndPan="magnify" viewBox="0 0 375 374.999991" height="500" preserveAspectRatio="xMidYMid meet" version="1.0"><defs><clipPath id="e7e51ccdbf"><path d="M 16.171875 5 L 358.921875 5 L 358.921875 375 L 16.171875 375 Z M 16.171875 5 " clip-rule="nonzero"/></clipPath></defs><path fill="#000000" d="M 73.199219 58.332031 C 69.917969 58.332031 67.261719 60.988281 67.261719 64.265625 C 67.261719 67.542969 69.917969 70.199219 73.199219 70.199219 C 76.476562 70.199219 79.132812 67.542969 79.132812 64.265625 C 79.132812 60.988281 76.476562 58.332031 73.199219 58.332031 Z M 73.199219 58.332031 " fill-opacity="1" fill-rule="nonzero"/><path fill="#000000" d="M 65.457031 95.355469 C 65.261719 93.746094 63.804688 92.613281 62.191406 92.808594 C 60.585938 93.007812 59.441406 94.46875 59.644531 96.074219 C 59.894531 98.101562 59.085938 100.175781 57.164062 102.414062 C 56.113281 103.640625 56.25 105.492188 57.476562 106.542969 C 58.027344 107.015625 58.710938 107.25 59.382812 107.25 C 60.207031 107.25 61.03125 106.902344 61.609375 106.226562 C 64.621094 102.71875 65.914062 99.058594 65.457031 95.355469 Z M 65.457031 95.355469 " fill-opacity="1" fill-rule="nonzero"/><path fill="#000000" d="M 41.359375 67.875 L 38.210938 69.34375 C 36.746094 70.023438 36.109375 71.769531 36.796875 73.234375 C 37.292969 74.300781 38.347656 74.925781 39.453125 74.925781 C 39.867188 74.925781 40.289062 74.835938 40.6875 74.648438 L 43.839844 73.183594 C 45.300781 72.5 45.9375 70.753906 45.253906 69.289062 C 44.570312 67.820312 42.828125 67.1875 41.359375 67.875 Z M 41.359375 67.875 " fill-opacity="1" fill-rule="nonzero"/><g clip-path="url(#e7e51ccdbf)"><path fill="#000000" d="M 358.230469 144.054688 C 357.601562 136.507812 353.335938 132.5 349.503906 130.671875 C 352.527344 125.058594 357.921875 113.75 356.367188 106.957031 C 354.246094 97.683594 342.3125 94.820312 322.746094 98.890625 C 298.113281 104.019531 249.109375 147.179688 239.335938 155.957031 C 221.855469 145.429688 202.769531 139.75 182.996094 139.546875 C 172.035156 139.421875 161.132812 140.488281 150.652344 142.675781 C 143.269531 144.226562 136.109375 139.769531 134.339844 132.550781 C 127.234375 103.632812 118.015625 67.503906 114.429688 59.628906 C 109.324219 48.425781 98.820312 34.527344 89.398438 30.851562 C 87.613281 30.152344 84.761719 29.238281 81.164062 28.695312 C 81.839844 26.859375 83.25 24.984375 84.652344 23.15625 C 87.617188 19.277344 91.679688 13.960938 86.792969 8.429688 C 79.910156 0.636719 65.007812 11.019531 58.710938 16.03125 L 54.875 11.515625 C 54.347656 10.894531 53.589844 10.523438 52.777344 10.484375 C 51.96875 10.457031 51.171875 10.746094 50.589844 11.320312 C 45.113281 16.695312 41.578125 22.578125 40.03125 28.875 L 37.625 26.242188 C 36.769531 25.300781 35.402344 25.023438 34.25 25.550781 C 33.09375 26.074219 32.40625 27.28125 32.546875 28.542969 C 32.929688 31.929688 31.324219 34.726562 29.292969 38.261719 C 27.191406 41.921875 24.8125 46.074219 24.351562 51.699219 C 23.761719 58.90625 26.082031 63.546875 28.058594 66.125 C 23.175781 70.699219 19.332031 76.621094 16.644531 83.949219 C 16.269531 84.976562 16.492188 86.125 17.234375 86.933594 C 17.972656 87.742188 19.101562 88.070312 20.15625 87.785156 C 26.898438 85.972656 33.378906 84.851562 39.679688 84.414062 C 36.039062 88.570312 31.539062 94.304688 30.425781 98.410156 C 28.25 106.421875 30.324219 113.089844 36.425781 117.679688 C 41.015625 121.140625 47.363281 119.277344 51.570312 117.328125 C 52.074219 120.957031 53.480469 125.574219 57.269531 127.828125 C 58.90625 128.804688 60.617188 129.171875 62.277344 129.171875 C 63.1875 129.171875 64.070312 129.035156 64.925781 128.851562 C 57.742188 146.332031 49.074219 170.488281 48.910156 199.554688 C 48.640625 248.453125 101.316406 266.191406 104.945312 267.351562 C 111.785156 270.347656 160.96875 291.777344 179.316406 296.402344 L 182.667969 306.453125 L 164.847656 346.148438 C 163.8125 348.445312 161.726562 350.070312 159.265625 350.480469 C 152.703125 351.585938 143.808594 353.488281 138.6875 356.300781 C 136.945312 357.257812 135.261719 358.492188 133.679688 359.960938 C 131.140625 362.324219 130.359375 365.8125 131.640625 369.070312 C 132.933594 372.355469 136.035156 374.480469 139.542969 374.480469 L 184.851562 374.480469 C 187.710938 374.480469 190.203125 372.75 191.207031 370.078125 C 191.214844 370.050781 191.210938 370.023438 191.222656 370 L 202.019531 370 C 205.195312 370 208.085938 368.253906 209.566406 365.449219 C 211.042969 362.640625 210.847656 359.273438 209.050781 356.652344 L 205.976562 352.175781 C 204.902344 350.605469 204.804688 348.605469 205.726562 346.949219 C 215.035156 330.25 226.273438 309.164062 226.976562 303.566406 C 227.539062 299.066406 226.027344 295.253906 224.453125 292.632812 C 229.355469 294.351562 237.507812 296.46875 243.375 294.199219 C 249.144531 291.980469 251.753906 287.4375 252.902344 284.316406 C 257.699219 285.417969 266.984375 286.417969 272.683594 279.644531 C 277.703125 273.679688 275.980469 266.347656 273.964844 261.65625 C 279.910156 261.5625 288.890625 260.683594 292.480469 256.472656 C 295.226562 253.257812 295.597656 249.789062 295.09375 246.988281 C 302.167969 246.519531 316.347656 244.703125 322.996094 237.683594 C 329.292969 231.039062 330.8125 222.789062 331.148438 218.367188 C 333.808594 218.171875 337.710938 217.332031 341.464844 214.503906 C 347.019531 210.328125 350.457031 203.257812 351.691406 193.496094 C 353.375 180.15625 348.230469 171.324219 345.089844 167.3125 C 349.644531 163.21875 359.019531 153.554688 358.230469 144.054688 Z M 352.394531 144.539062 C 353.003906 151.871094 343.578125 161.117188 339.457031 164.433594 L 309.65625 174.953125 C 313.226562 169.078125 316.714844 160.34375 313.765625 151.355469 C 312.472656 147.382812 310.039062 144.511719 306.527344 142.824219 C 306.347656 142.734375 306.152344 142.6875 305.964844 142.609375 C 320.519531 137.820312 333.398438 135.417969 345.007812 135.304688 C 346.097656 135.496094 351.753906 136.847656 352.394531 144.539062 Z M 323.945312 104.628906 C 339.175781 101.457031 349.414062 102.847656 350.65625 108.265625 C 351.699219 112.832031 347.058594 123.152344 343.441406 129.507812 C 330.296875 129.839844 315.695312 132.898438 299.132812 138.789062 C 302.855469 133.691406 305.898438 127.496094 303.675781 122.65625 C 302.609375 120.332031 300.792969 118.652344 298.417969 117.8125 C 298.128906 117.710938 297.824219 117.679688 297.53125 117.605469 C 307.496094 111.109375 316.917969 106.089844 323.945312 104.628906 Z M 30.191406 52.175781 C 30.539062 47.851562 32.488281 44.460938 34.371094 41.179688 C 35.539062 39.144531 36.726562 37.078125 37.523438 34.820312 L 39.910156 37.4375 C 40.710938 38.320312 41.980469 38.617188 43.089844 38.210938 C 44.207031 37.792969 44.964844 36.746094 45 35.554688 C 45.195312 29.132812 47.664062 23.300781 52.515625 17.796875 L 56.117188 22.027344 C 56.621094 22.625 57.34375 22.992188 58.121094 23.054688 C 58.917969 23.101562 59.671875 22.859375 60.261719 22.351562 C 67.644531 15.992188 79.441406 8.960938 82.402344 12.308594 C 83.835938 13.929688 83.449219 15.085938 80 19.605469 C 78.058594 22.144531 75.929688 24.941406 75.179688 28.253906 C 69.585938 28.242188 62.964844 29.367188 55.929688 33 C 45.347656 38.46875 42 52.851562 41.121094 58.035156 C 38.039062 59.179688 35.203125 60.667969 32.59375 62.449219 C 31.347656 60.761719 29.753906 57.523438 30.191406 52.175781 Z M 43.703125 63.363281 C 52.542969 66.816406 56.664062 71.859375 56.414062 79.050781 C 53.203125 78.660156 49.96875 78.414062 46.699219 78.378906 C 46.632812 78.375 46.566406 78.367188 46.496094 78.367188 C 46.238281 78.367188 45.984375 78.339844 45.726562 78.339844 C 38.8125 78.339844 31.738281 79.132812 24.398438 80.730469 C 28.730469 72.09375 35.109375 66.402344 43.703125 63.363281 Z M 83.625 73.640625 C 83.695312 73.691406 90.546875 78.707031 87.425781 84.054688 C 84.550781 88.988281 78.679688 87.210938 66.898438 82.308594 C 65.355469 81.664062 63.78125 81.046875 62.214844 80.425781 C 62.621094 75.371094 61.546875 69.597656 56.691406 64.652344 C 63.941406 56.246094 73.804688 53.058594 80.816406 53.746094 C 86.332031 54.300781 90.5 57.039062 92.546875 61.453125 C 93.171875 62.800781 92.960938 63.550781 92.707031 64.054688 C 91.554688 66.34375 86.851562 67.964844 84.753906 68.394531 C 83.613281 68.628906 82.71875 69.515625 82.476562 70.652344 C 82.226562 71.789062 82.675781 72.960938 83.625 73.640625 Z M 60.269531 122.800781 C 57.632812 121.226562 57.046875 115.289062 57.179688 112.660156 C 57.234375 111.554688 56.65625 110.507812 55.695312 109.964844 C 54.734375 109.417969 53.539062 109.460938 52.621094 110.078125 C 49.765625 111.996094 42.90625 115.242188 39.949219 113.007812 C 35.808594 109.886719 34.539062 105.617188 36.082031 99.945312 C 37.089844 96.234375 43.457031 88.734375 47.789062 84.253906 C 51.292969 84.335938 54.757812 84.617188 58.183594 85.140625 C 63.222656 87.519531 75.011719 94.78125 74.535156 102.570312 C 74.296875 106.515625 71.582031 113.007812 68.125 121.210938 C 66.71875 122.121094 62.851562 124.335938 60.269531 122.800781 Z M 185.714844 368.027344 C 185.613281 368.300781 185.378906 368.628906 184.847656 368.628906 L 139.542969 368.628906 C 138.230469 368.628906 137.414062 367.75 137.09375 366.933594 C 136.90625 366.460938 136.589844 365.257812 137.667969 364.253906 C 138.898438 363.109375 140.191406 362.160156 141.511719 361.433594 C 144.941406 359.550781 151.589844 357.710938 160.242188 356.257812 C 164.636719 355.515625 168.359375 352.632812 170.191406 348.546875 L 188.480469 307.808594 C 188.78125 307.140625 188.820312 306.382812 188.585938 305.683594 L 185.773438 297.25 C 193.308594 297.007812 199.441406 294.636719 202.546875 293.152344 C 203.769531 294.828125 205.382812 297.875 204.988281 302.046875 C 204.488281 307.410156 190.351562 331.007812 181.449219 344.8125 C 177.382812 352.296875 179.03125 361.425781 185.457031 367.015625 C 185.855469 367.359375 185.816406 367.757812 185.714844 368.027344 Z M 221.160156 302.84375 C 220.730469 306.269531 212.664062 322.464844 200.605469 344.105469 C 198.589844 347.714844 198.800781 352.082031 201.144531 355.5 L 204.21875 359.972656 C 205.042969 361.171875 204.605469 362.296875 204.378906 362.722656 C 204.152344 363.152344 203.472656 364.148438 202.019531 364.148438 L 190.625 364.148438 C 190.269531 363.578125 189.832031 363.050781 189.300781 362.589844 C 184.964844 358.820312 183.851562 352.65625 186.484375 347.796875 C 190.410156 341.71875 210.035156 310.964844 210.824219 302.589844 C 211.039062 300.300781 210.828125 298.242188 210.386719 296.421875 C 211.382812 296.5 212.4375 296.496094 213.589844 296.339844 C 215.753906 296.050781 217.480469 295.480469 218.882812 294.792969 C 220.089844 296.542969 221.582031 299.464844 221.160156 302.84375 Z M 288.023438 252.679688 C 285.726562 255.375 275.425781 256.082031 269.1875 255.710938 C 268.15625 255.667969 267.015625 256.222656 266.460938 257.203125 C 265.910156 258.179688 265.972656 259.386719 266.609375 260.308594 C 266.675781 260.402344 273.191406 269.941406 268.195312 275.878906 C 263.082031 281.960938 251.980469 277.984375 251.875 277.945312 C 251.03125 277.632812 250.101562 277.722656 249.332031 278.1875 C 248.566406 278.648438 248.054688 279.441406 247.945312 280.328125 C 247.9375 280.390625 247.117188 286.488281 241.269531 288.730469 C 236.046875 290.75 226.144531 287.203125 222.769531 285.671875 C 222.050781 285.34375 221.207031 285.371094 220.472656 285.660156 C 219.738281 285.949219 219.125 286.570312 218.820312 287.296875 C 218.773438 287.402344 217.664062 289.886719 212.8125 290.535156 C 209.824219 290.933594 207.882812 289.949219 206.796875 289.074219 C 205.925781 287.972656 205.238281 287.355469 205.152344 287.285156 C 205.113281 287.25 205.0625 287.238281 205.019531 287.207031 C 204.855469 287.078125 204.679688 286.992188 204.492188 286.90625 C 204.335938 286.828125 204.1875 286.738281 204.023438 286.695312 C 203.828125 286.640625 203.636719 286.636719 203.4375 286.621094 C 203.269531 286.609375 203.105469 286.582031 202.9375 286.601562 C 202.730469 286.621094 202.535156 286.695312 202.335938 286.757812 C 202.175781 286.8125 202.019531 286.851562 201.867188 286.929688 C 201.8125 286.957031 201.75 286.957031 201.699219 286.992188 C 201.625 287.035156 194.308594 291.441406 184.554688 291.441406 C 183.910156 291.441406 182.984375 291.300781 181.835938 291.050781 C 181.835938 291.050781 181.832031 291.046875 181.824219 291.046875 C 169.777344 288.398438 131.859375 272.753906 107.160156 261.921875 C 107.054688 261.875 106.9375 261.835938 106.824219 261.800781 C 106.300781 261.644531 54.523438 245.640625 54.777344 199.589844 C 54.957031 167.507812 66 141.324219 73.308594 123.996094 C 77.238281 114.679688 80.078125 107.949219 80.386719 102.925781 C 80.636719 98.851562 78.984375 95.171875 76.554688 91.992188 C 78.527344 92.480469 80.449219 92.792969 82.269531 92.792969 C 86.390625 92.792969 89.992188 91.273438 92.480469 87.003906 C 95.714844 81.476562 93.683594 76.203125 90.832031 72.5625 C 93.480469 71.417969 96.476562 69.566406 97.929688 66.703125 C 98.765625 65.054688 99.433594 62.375 97.859375 58.984375 C 94.953125 52.707031 88.953125 48.675781 81.402344 47.914062 C 70.996094 46.855469 59.734375 51.941406 52.046875 60.972656 C 50.574219 60.046875 48.90625 59.175781 47.023438 58.375 C 47.914062 53.613281 50.804688 42.238281 58.621094 38.203125 C 71.640625 31.480469 82.992188 34.640625 87.269531 36.3125 C 94.042969 38.957031 103.832031 50.507812 109.097656 62.0625 C 111.710938 67.796875 118.835938 94 128.652344 133.949219 C 131.175781 144.246094 141.382812 150.59375 151.851562 148.410156 C 161.921875 146.3125 172.296875 145.265625 182.9375 145.40625 C 224.300781 145.828125 262.644531 171.710938 288.691406 216.605469 C 284.441406 216.835938 280.234375 216.300781 276.097656 215.027344 C 274.730469 214.617188 273.269531 215.230469 272.625 216.5 C 271.976562 217.773438 272.339844 219.324219 273.484375 220.175781 C 277.25 222.984375 279.617188 225.832031 280.648438 228.816406 C 271.414062 231.648438 261.652344 231.058594 250.898438 227.046875 C 249.4375 226.496094 247.804688 227.195312 247.1875 228.625 C 246.566406 230.050781 247.171875 231.71875 248.570312 232.410156 C 254.027344 235.125 257.777344 238.152344 260.109375 241.78125 C 240.261719 245.554688 223.679688 245.601562 209.515625 241.9375 C 203.808594 240.460938 197.648438 240.785156 191.710938 242.894531 C 179.214844 247.316406 155.0625 252.34375 133.691406 236.316406 C 104.363281 214.316406 114.0625 188.328125 114.484375 187.242188 C 115.078125 185.738281 114.34375 184.039062 112.839844 183.441406 C 111.332031 182.847656 109.632812 183.578125 109.035156 185.082031 C 108.910156 185.390625 97.160156 216.246094 130.171875 241 C 153.726562 258.667969 180.0625 253.230469 193.664062 248.414062 C 198.496094 246.703125 203.472656 246.425781 208.042969 247.609375 C 223.988281 251.734375 242.640625 251.457031 265.0625 246.769531 C 265.90625 246.589844 266.632812 246.054688 267.042969 245.292969 C 267.453125 244.53125 267.503906 243.632812 267.191406 242.828125 C 266.230469 240.390625 264.882812 238.136719 263.128906 236.058594 C 270.792969 236.9375 278.152344 236.085938 285.109375 233.484375 C 286.378906 233.015625 287.15625 231.730469 286.996094 230.390625 C 286.652344 227.578125 285.632812 224.933594 283.910156 222.414062 C 287.230469 222.640625 290.570312 222.476562 293.90625 221.90625 C 294.84375 221.746094 295.640625 221.144531 296.050781 220.292969 C 296.464844 219.4375 296.4375 218.4375 295.980469 217.605469 C 282.058594 192.355469 264.414062 172.5625 244.484375 159.226562 C 251.199219 153.261719 268.871094 137.894531 286.910156 124.90625 C 288.636719 124.097656 293.554688 122.292969 296.46875 123.332031 C 297.359375 123.652344 297.941406 124.195312 298.355469 125.09375 C 300.097656 128.898438 292.582031 138.414062 286.960938 143.644531 C 286.945312 143.660156 286.9375 143.679688 286.925781 143.691406 C 286.828125 143.785156 286.769531 143.902344 286.6875 144.007812 C 286.542969 144.1875 286.40625 144.367188 286.308594 144.570312 C 286.25 144.695312 286.226562 144.828125 286.1875 144.960938 C 286.125 145.171875 286.070312 145.375 286.054688 145.59375 C 286.046875 145.734375 286.058594 145.871094 286.070312 146.015625 C 286.085938 146.238281 286.125 146.453125 286.195312 146.671875 C 286.21875 146.746094 286.210938 146.828125 286.238281 146.902344 C 286.273438 146.992188 286.339844 147.0625 286.382812 147.144531 C 286.414062 147.203125 286.421875 147.273438 286.457031 147.332031 C 286.492188 147.382812 286.539062 147.414062 286.574219 147.460938 C 286.695312 147.636719 286.835938 147.789062 286.992188 147.929688 C 287.070312 148.003906 287.140625 148.078125 287.230469 148.140625 C 287.417969 148.28125 287.625 148.382812 287.84375 148.476562 C 287.910156 148.503906 287.972656 148.546875 288.042969 148.570312 C 288.332031 148.664062 288.632812 148.722656 288.945312 148.722656 C 288.953125 148.722656 288.960938 148.714844 288.96875 148.714844 C 289.304688 148.710938 289.648438 148.652344 289.976562 148.53125 C 292.300781 147.65625 299.351562 145.878906 303.980469 148.101562 C 306.019531 149.078125 307.394531 150.734375 308.1875 153.175781 C 312.164062 165.285156 300.109375 178.023438 299.988281 178.148438 C 299.179688 178.992188 298.953125 180.238281 299.40625 181.316406 C 299.4375 181.386719 299.492188 181.445312 299.53125 181.515625 C 299.542969 181.550781 299.53125 181.585938 299.542969 181.621094 C 299.972656 182.824219 301.101562 183.574219 302.304688 183.574219 C 302.628906 183.574219 302.960938 183.519531 303.28125 183.40625 L 303.710938 183.253906 C 306.574219 183.6875 312.148438 185.433594 313.296875 192.492188 C 315.679688 207.117188 305.203125 212.015625 304.625 212.273438 C 304.625 212.277344 304.609375 212.28125 304.605469 212.28125 C 304.289062 212.417969 304.019531 212.613281 303.777344 212.835938 C 303.703125 212.902344 303.652344 212.984375 303.582031 213.054688 C 303.421875 213.238281 303.285156 213.433594 303.171875 213.648438 C 303.121094 213.75 303.078125 213.847656 303.035156 213.953125 C 302.941406 214.203125 302.886719 214.460938 302.863281 214.734375 C 302.855469 214.796875 302.824219 214.855469 302.820312 214.917969 C 302.820312 214.9375 302.832031 214.957031 302.832031 214.976562 C 302.832031 215.007812 302.820312 215.035156 302.820312 215.066406 C 302.832031 215.394531 302.90625 215.707031 303.019531 216.003906 C 303.046875 216.082031 303.097656 216.152344 303.136719 216.226562 C 303.246094 216.460938 303.382812 216.679688 303.554688 216.875 C 303.628906 216.960938 303.703125 217.03125 303.785156 217.109375 C 303.964844 217.277344 304.164062 217.410156 304.382812 217.527344 C 304.472656 217.578125 304.554688 217.632812 304.648438 217.671875 C 304.691406 217.6875 304.722656 217.71875 304.765625 217.734375 C 305.027344 217.828125 311.128906 220.070312 310.363281 225.8125 C 309.363281 233.335938 295.3125 239.644531 289.980469 241.441406 C 289.929688 241.457031 289.898438 241.5 289.847656 241.519531 C 289.582031 241.625 289.34375 241.765625 289.121094 241.941406 C 289.050781 241.996094 288.976562 242.046875 288.914062 242.109375 C 288.683594 242.324219 288.476562 242.570312 288.324219 242.859375 C 288.320312 242.871094 288.320312 242.882812 288.3125 242.894531 C 288.292969 242.929688 288.285156 242.972656 288.269531 243.011719 C 288.144531 243.285156 288.074219 243.570312 288.035156 243.859375 C 288.023438 243.949219 288.015625 244.039062 288.015625 244.132812 C 288.003906 244.472656 288.035156 244.8125 288.140625 245.132812 C 288.140625 245.140625 288.140625 245.140625 288.144531 245.148438 C 288.144531 245.148438 288.144531 245.152344 288.144531 245.152344 C 288.230469 245.40625 288.351562 245.652344 288.507812 245.878906 C 288.609375 246.03125 290.855469 249.359375 288.023438 252.679688 Z M 318.742188 233.660156 C 316.1875 236.351562 311.742188 238.136719 307.046875 239.300781 C 311.5625 236.027344 315.492188 231.773438 316.175781 226.59375 C 316.636719 223.136719 315.722656 220.308594 314.238281 218.078125 L 325.28125 218.292969 C 324.953125 221.90625 323.664062 228.464844 318.742188 233.660156 Z M 345.875 192.773438 C 344.855469 200.84375 342.21875 206.558594 338.027344 209.765625 C 333.589844 213.15625 328.917969 212.558594 328.75 212.527344 C 328.6875 212.515625 328.628906 212.542969 328.5625 212.539062 C 328.492188 212.53125 328.425781 212.492188 328.351562 212.492188 L 313.964844 212.210938 C 317.6875 207.835938 320.636719 201.058594 319.089844 191.554688 C 318.1875 186.011719 315.308594 182.503906 312.015625 180.328125 L 340.074219 170.421875 C 342.414062 173.207031 347.398438 180.699219 345.875 192.773438 Z M 345.875 192.773438 " fill-opacity="1" fill-rule="nonzero"/></g></svg>