<svg xmlns="http://www.w3.org/2000/svg" xmlns:xlink="http://www.w3.org/1999/xlink" width="500" zoomAndPan="magnify" viewBox="0 0 375 374.999991" height="500" preserveAspectRatio="xMidYMid meet" version="1.0"><defs><clipPath id="80c0e753d0"><path d="M 54 28 L 342.785156 28 L 342.785156 334 L 54 334 Z M 54 28 " clip-rule="nonzero"/></clipPath></defs><g clip-path="url(#80c0e753d0)"><path fill="#000000" d="M 114.273438 173.867188 C 115.667969 173.765625 116.894531 174.859375 116.992188 176.25 C 116.992188 176.285156 116.992188 176.351562 116.992188 176.382812 C 116.925781 207.039062 139.582031 233.023438 169.96875 237.199219 C 160.148438 227.886719 153.945312 215.425781 152.355469 202.003906 C 152.253906 200.609375 153.316406 199.351562 154.742188 199.285156 C 156.035156 199.1875 157.230469 200.113281 157.429688 201.40625 C 160.8125 230.339844 187.050781 251.050781 216.042969 247.671875 C 220.785156 247.109375 225.394531 245.914062 229.808594 244.125 C 222.476562 237.628906 216.40625 229.875 211.894531 221.191406 C 211.199219 219.964844 211.597656 218.40625 212.824219 217.710938 C 214.019531 217.015625 215.578125 217.414062 216.308594 218.640625 C 216.339844 218.707031 216.375 218.773438 216.40625 218.839844 C 225.59375 236.46875 241.449219 249.726562 260.425781 255.722656 C 265.597656 257.316406 271.136719 254.796875 273.292969 249.824219 C 278.964844 236.898438 274.390625 221.753906 262.515625 214.097656 C 261.351562 213.304688 261.121094 211.714844 261.949219 210.554688 C 262.679688 209.527344 264.105469 209.195312 265.234375 209.824219 C 279.230469 218.804688 284.640625 236.636719 277.972656 251.878906 C 274.753906 259.203125 266.527344 262.949219 258.898438 260.5625 C 249.976562 257.746094 241.648438 253.40625 234.21875 247.769531 C 215.609375 256.386719 193.785156 254.5 176.898438 242.832031 C 140.710938 242.070312 111.785156 212.507812 111.851562 176.382812 C 111.851562 175.027344 112.914062 173.933594 114.242188 173.832031 Z M 90.753906 45.972656 C 93.707031 45.90625 96.128906 48.261719 96.164062 51.210938 C 96.164062 51.242188 96.164062 51.308594 96.164062 51.34375 C 96.292969 54.292969 93.972656 56.777344 91.019531 56.878906 C 88.101562 56.976562 85.613281 54.691406 85.515625 51.738281 C 85.480469 51.609375 85.480469 51.476562 85.515625 51.34375 C 85.480469 48.425781 87.804688 46.007812 90.753906 45.972656 Z M 94.902344 28.308594 C 82.527344 28.476562 71.351562 35.667969 66.078125 46.800781 C 64.121094 55.453125 64.683594 64.433594 67.667969 72.75 C 75.230469 93.761719 74.039062 116.960938 64.351562 137.113281 C 39.40625 188.945312 61.234375 251.21875 113.144531 276.140625 C 121.769531 280.316406 130.925781 283.230469 140.378906 284.890625 C 144.09375 285.550781 147.34375 287.804688 149.203125 291.121094 C 154.277344 300.035156 163.167969 306.132812 173.316406 307.65625 C 177.332031 308.285156 180.8125 310.738281 182.671875 314.351562 C 191.5625 331.519531 212.691406 338.246094 229.875 329.363281 C 236.542969 325.917969 241.914062 320.417969 245.230469 313.65625 C 247.355469 309.347656 251.765625 306.597656 256.609375 306.597656 C 286.695312 306.628906 311.109375 282.304688 311.140625 252.246094 C 311.140625 246.84375 310.347656 241.472656 308.753906 236.304688 C 306.996094 230.503906 309.550781 224.308594 314.890625 221.457031 C 333.101562 211.746094 341.359375 190.105469 334.230469 170.75 C 332.605469 166.308594 333.597656 161.304688 336.816406 157.824219 C 341.128906 153.121094 343.285156 146.789062 342.722656 140.425781 C 342.421875 137.210938 340.101562 134.527344 336.949219 133.765625 C 300.128906 124.851562 261.253906 133.203125 231.367188 156.433594 C 226.921875 159.914062 220.71875 160.011719 216.140625 156.699219 C 204.167969 147.980469 189.871094 143.078125 175.109375 142.582031 C 164.691406 142.25 155.835938 134.890625 153.613281 124.71875 C 146.613281 92.769531 133.015625 62.609375 113.742188 36.164062 C 111.453125 33.015625 108.203125 30.730469 104.453125 29.601562 C 101.335938 28.707031 98.121094 28.277344 94.867188 28.308594 L 94.902344 28.308594 " fill-opacity="1" fill-rule="nonzero"/></g><path fill="#000000" d="M 32.539062 48.757812 C 41.164062 42.164062 52.242188 39.644531 62.890625 41.929688 C 62.292969 42.957031 61.730469 44.050781 61.234375 45.144531 C 60.105469 49.949219 59.640625 54.921875 59.941406 59.894531 C 50.089844 59.230469 40.601562 55.851562 32.574219 50.117188 C 32.207031 49.816406 32.140625 49.289062 32.40625 48.921875 C 32.441406 48.855469 32.507812 48.789062 32.574219 48.757812 L 32.539062 48.757812 " fill-opacity="1" fill-rule="nonzero"/><path fill="#000000" d="M 89.828125 5.972656 C 93.808594 1.035156 101.003906 0.273438 105.949219 4.25 C 106.976562 5.042969 107.839844 6.039062 108.5 7.164062 C 109.894531 9.386719 112.449219 10.578125 115.035156 10.214844 C 123.695312 8.953125 131.722656 14.988281 132.980469 23.636719 C 134.011719 30.894531 129.929688 37.921875 123.097656 40.605469 C 121.40625 38.085938 119.648438 35.601562 117.890625 33.179688 C 114.9375 29.105469 110.722656 26.15625 105.914062 24.730469 C 94.769531 21.449219 82.695312 23.535156 73.308594 30.363281 C 67.769531 26.320312 66.574219 18.566406 70.621094 13.0625 C 73.507812 9.085938 78.480469 7.199219 83.292969 8.257812 C 85.714844 8.789062 88.234375 7.894531 89.828125 5.972656 " fill-opacity="1" fill-rule="nonzero"/><path fill="#000000" d="M 193.550781 375 L 203.703125 375 C 210.667969 375 216.339844 369.332031 216.339844 362.375 L 216.339844 338.28125 L 211.230469 338.28125 L 211.230469 362.375 C 211.230469 366.515625 207.882812 369.894531 203.703125 369.929688 L 193.550781 369.929688 C 192.125 369.929688 190.996094 371.089844 191.03125 372.480469 C 191.0625 373.875 192.160156 374.96875 193.550781 375 " fill-opacity="1" fill-rule="nonzero"/></svg>