<svg xmlns="http://www.w3.org/2000/svg" xmlns:xlink="http://www.w3.org/1999/xlink" width="500" zoomAndPan="magnify" viewBox="0 0 375 374.999991" height="500" preserveAspectRatio="xMidYMid meet" version="1.0"><defs><clipPath id="8e0e574428"><path d="M 16.875 57 L 51 57 L 51 76 L 16.875 76 Z M 16.875 57 " clip-rule="nonzero"/></clipPath></defs><g clip-path="url(#8e0e574428)"><path fill="#000000" d="M 39.820312 72.992188 C 39.890625 72.988281 39.960938 73 40.03125 73 C 43.421875 73.039062 46.777344 73.296875 50.113281 73.703125 C 50.375 66.230469 46.097656 60.996094 36.917969 57.410156 C 27.996094 60.5625 21.375 66.476562 16.875 75.445312 C 24.496094 73.785156 31.84375 72.960938 39.019531 72.960938 C 39.289062 72.960938 39.550781 72.988281 39.820312 72.992188 Z M 37.058594 67.605469 L 33.789062 69.128906 C 33.371094 69.324219 32.9375 69.414062 32.503906 69.414062 C 31.359375 69.414062 30.261719 68.769531 29.746094 67.660156 C 29.039062 66.140625 29.695312 64.328125 31.214844 63.617188 L 34.484375 62.09375 C 36.007812 61.382812 37.820312 62.039062 38.527344 63.5625 C 39.238281 65.085938 38.578125 66.894531 37.058594 67.605469 Z M 37.058594 67.605469 " fill-opacity="1" fill-rule="nonzero"/></g><path fill="#000000" d="M 34.238281 51.871094 C 35.152344 46.488281 38.621094 31.554688 49.613281 25.875 C 56.914062 22.101562 63.789062 20.929688 69.597656 20.945312 C 70.378906 17.511719 72.585938 14.601562 74.601562 11.964844 C 78.1875 7.273438 78.585938 6.070312 77.09375 4.386719 C 74.023438 0.90625 61.773438 8.210938 54.109375 14.816406 C 53.496094 15.34375 52.714844 15.59375 51.886719 15.546875 C 51.078125 15.484375 50.332031 15.101562 49.804688 14.480469 L 46.074219 10.085938 C 41.03125 15.796875 38.476562 21.855469 38.269531 28.523438 C 38.230469 29.761719 37.445312 30.851562 36.28125 31.28125 C 35.132812 31.707031 33.8125 31.394531 32.984375 30.480469 L 30.5 27.761719 C 29.675781 30.109375 28.441406 32.257812 27.230469 34.371094 C 25.277344 37.777344 23.253906 41.300781 22.886719 45.789062 C 22.433594 51.339844 24.085938 54.703125 25.386719 56.457031 C 28.09375 54.609375 31.035156 53.0625 34.238281 51.871094 Z M 34.238281 51.871094 " fill-opacity="1" fill-rule="nonzero"/><path fill="#000000" d="M 349.738281 132.121094 C 337.6875 132.238281 324.316406 134.734375 309.207031 139.707031 C 309.398438 139.789062 309.597656 139.835938 309.789062 139.929688 C 313.429688 141.679688 315.957031 144.660156 317.304688 148.792969 C 320.367188 158.121094 316.738281 167.191406 313.039062 173.296875 L 343.980469 162.371094 C 348.253906 158.929688 358.042969 149.328125 357.410156 141.710938 C 356.742188 133.722656 350.871094 132.320312 349.738281 132.121094 Z M 349.738281 132.121094 " fill-opacity="1" fill-rule="nonzero"/><path fill="#000000" d="M 306.832031 118.984375 C 309.136719 124.011719 305.976562 130.445312 302.109375 135.742188 C 319.308594 129.621094 334.46875 126.445312 348.117188 126.101562 C 351.871094 119.5 356.6875 108.78125 355.605469 104.039062 C 354.316406 98.414062 343.683594 96.96875 327.871094 100.261719 C 320.582031 101.78125 310.796875 106.996094 300.457031 113.738281 C 300.761719 113.816406 301.078125 113.847656 301.371094 113.953125 C 303.835938 114.828125 305.722656 116.566406 306.832031 118.984375 Z M 306.832031 118.984375 " fill-opacity="1" fill-rule="nonzero"/><path fill="#000000" d="M 50.910156 108.601562 C 50.773438 111.328125 51.378906 117.5 54.117188 119.132812 C 56.796875 120.726562 60.8125 118.429688 62.273438 117.480469 C 65.863281 108.960938 68.679688 102.21875 68.929688 98.121094 C 69.421875 90.058594 57.183594 82.496094 51.953125 80.019531 C 48.394531 79.472656 44.796875 79.183594 41.164062 79.09375 C 36.664062 83.75 30.050781 91.542969 29.003906 95.394531 C 27.40625 101.285156 28.722656 105.71875 33.023438 108.957031 C 36.089844 111.277344 43.214844 107.910156 46.175781 105.917969 C 47.128906 105.277344 48.371094 105.230469 49.367188 105.796875 C 50.371094 106.367188 50.964844 107.453125 50.910156 108.601562 Z M 50.894531 97.964844 C 52.886719 95.640625 53.726562 93.484375 53.46875 91.378906 C 53.261719 89.710938 54.445312 88.195312 56.113281 87.988281 C 57.789062 87.789062 59.300781 88.964844 59.503906 90.632812 C 59.976562 94.480469 58.636719 98.28125 55.511719 101.925781 C 54.910156 102.625 54.058594 102.988281 53.203125 102.988281 C 52.503906 102.988281 51.792969 102.746094 51.222656 102.253906 C 49.945312 101.15625 49.796875 99.238281 50.894531 97.964844 Z M 50.894531 97.964844 " fill-opacity="1" fill-rule="nonzero"/><path fill="#000000" d="M 313.777344 226.121094 C 314.570312 220.15625 308.238281 217.828125 307.96875 217.730469 C 307.921875 217.714844 307.890625 217.683594 307.847656 217.664062 C 307.746094 217.625 307.664062 217.566406 307.570312 217.515625 C 307.34375 217.394531 307.136719 217.25 306.949219 217.082031 C 306.863281 217.003906 306.785156 216.925781 306.710938 216.835938 C 306.53125 216.632812 306.394531 216.410156 306.273438 216.164062 C 306.234375 216.085938 306.1875 216.015625 306.152344 215.933594 C 306.039062 215.625 305.957031 215.300781 305.949219 214.957031 C 305.949219 214.925781 305.960938 214.898438 305.960938 214.867188 C 305.960938 214.84375 305.949219 214.828125 305.949219 214.804688 C 305.949219 214.738281 305.984375 214.679688 305.992188 214.613281 C 306.015625 214.332031 306.070312 214.0625 306.171875 213.804688 C 306.214844 213.695312 306.257812 213.59375 306.3125 213.488281 C 306.429688 213.265625 306.574219 213.0625 306.738281 212.871094 C 306.808594 212.796875 306.863281 212.714844 306.941406 212.644531 C 307.191406 212.410156 307.476562 212.207031 307.800781 212.070312 C 307.804688 212.070312 307.820312 212.058594 307.824219 212.058594 C 308.421875 211.789062 319.296875 206.703125 316.824219 191.515625 C 315.636719 184.1875 309.847656 182.371094 306.871094 181.921875 L 306.425781 182.082031 C 306.09375 182.199219 305.75 182.257812 305.414062 182.257812 C 304.160156 182.257812 302.988281 181.476562 302.546875 180.226562 C 302.535156 180.191406 302.542969 180.15625 302.53125 180.117188 C 302.492188 180.046875 302.4375 179.988281 302.402344 179.910156 C 301.933594 178.789062 302.164062 177.496094 303.003906 176.621094 C 303.132812 176.488281 315.648438 163.261719 311.519531 150.6875 C 310.695312 148.152344 309.269531 146.433594 307.152344 145.414062 C 302.34375 143.109375 295.027344 144.957031 292.613281 145.863281 C 292.269531 145.992188 291.914062 146.050781 291.566406 146.054688 C 291.558594 146.054688 291.550781 146.058594 291.542969 146.058594 C 291.21875 146.058594 290.90625 146 290.605469 145.902344 C 290.53125 145.878906 290.46875 145.835938 290.398438 145.804688 C 290.171875 145.710938 289.957031 145.605469 289.757812 145.457031 C 289.671875 145.394531 289.59375 145.3125 289.511719 145.238281 C 289.351562 145.09375 289.207031 144.933594 289.078125 144.753906 C 289.042969 144.703125 288.992188 144.671875 288.960938 144.617188 C 288.921875 144.558594 288.914062 144.484375 288.878906 144.421875 C 288.835938 144.332031 288.769531 144.261719 288.730469 144.171875 C 288.699219 144.09375 288.710938 144.011719 288.6875 143.929688 C 288.613281 143.707031 288.574219 143.480469 288.554688 143.25 C 288.542969 143.101562 288.527344 142.957031 288.539062 142.8125 C 288.554688 142.585938 288.609375 142.371094 288.675781 142.15625 C 288.71875 142.019531 288.742188 141.882812 288.804688 141.75 C 288.902344 141.539062 289.046875 141.351562 289.195312 141.164062 C 289.28125 141.054688 289.34375 140.933594 289.441406 140.839844 C 289.457031 140.824219 289.464844 140.804688 289.480469 140.789062 C 295.320312 135.355469 303.117188 125.472656 301.3125 121.523438 C 300.882812 120.589844 300.277344 120.027344 299.351562 119.695312 C 296.328125 118.613281 291.238281 120.480469 289.4375 121.328125 C 270.703125 134.816406 252.355469 150.777344 245.382812 156.96875 C 266.074219 170.816406 284.390625 191.371094 298.851562 217.601562 C 299.328125 218.460938 299.355469 219.503906 298.925781 220.390625 C 298.496094 221.273438 297.671875 221.902344 296.699219 222.066406 C 293.234375 222.660156 289.769531 222.828125 286.320312 222.59375 C 288.109375 225.207031 289.167969 227.957031 289.523438 230.878906 C 289.691406 232.269531 288.882812 233.601562 287.566406 234.09375 C 280.34375 236.792969 272.699219 237.675781 264.746094 236.765625 C 266.566406 238.921875 267.964844 241.261719 268.960938 243.792969 C 269.289062 244.628906 269.234375 245.5625 268.808594 246.351562 C 268.382812 247.144531 267.628906 247.699219 266.753906 247.886719 C 243.476562 252.757812 224.109375 253.042969 207.550781 248.757812 C 202.808594 247.53125 197.644531 247.816406 192.625 249.59375 C 178.503906 254.597656 151.160156 260.242188 126.707031 241.894531 C 92.433594 216.1875 104.632812 184.144531 104.761719 183.824219 C 105.382812 182.261719 107.148438 181.503906 108.710938 182.121094 C 110.273438 182.738281 111.035156 184.507812 110.417969 186.066406 C 109.976562 187.199219 99.914062 214.1875 130.359375 237.03125 C 152.546875 253.675781 177.625 248.453125 190.597656 243.859375 C 196.761719 241.671875 203.15625 241.332031 209.082031 242.871094 C 223.789062 246.675781 241.003906 246.625 261.609375 242.707031 C 259.183594 238.9375 255.292969 235.792969 249.628906 232.976562 C 248.179688 232.253906 247.550781 230.523438 248.195312 229.042969 C 248.835938 227.558594 250.53125 226.832031 252.046875 227.402344 C 263.210938 231.570312 273.347656 232.183594 282.933594 229.242188 C 281.859375 226.140625 279.40625 223.183594 275.496094 220.269531 C 274.308594 219.382812 273.933594 217.773438 274.605469 216.453125 C 275.273438 215.132812 276.789062 214.496094 278.210938 214.921875 C 282.503906 216.246094 286.871094 216.800781 291.28125 216.5625 C 264.242188 169.9375 224.433594 143.058594 181.488281 142.621094 C 170.4375 142.472656 159.667969 143.558594 149.214844 145.742188 C 138.34375 148.011719 127.75 141.417969 125.128906 130.722656 C 114.9375 89.234375 107.539062 62.023438 104.828125 56.066406 C 99.363281 44.070312 89.195312 32.070312 82.164062 29.328125 C 77.726562 27.59375 65.941406 24.3125 52.421875 31.292969 C 44.304688 35.484375 41.308594 47.292969 40.382812 52.238281 C 42.335938 53.070312 44.070312 53.972656 45.59375 54.9375 C 53.578125 45.558594 65.265625 40.277344 76.074219 41.375 C 83.910156 42.164062 90.140625 46.351562 93.160156 52.871094 C 94.792969 56.390625 94.101562 59.175781 93.230469 60.886719 C 91.726562 63.859375 88.613281 65.785156 85.863281 66.972656 C 88.824219 70.75 90.929688 76.230469 87.578125 81.972656 C 84.988281 86.40625 81.25 87.980469 76.972656 87.980469 C 75.085938 87.980469 73.085938 87.65625 71.039062 87.152344 C 73.5625 90.449219 75.277344 94.269531 75.019531 98.503906 C 74.699219 103.722656 71.75 110.710938 67.671875 120.386719 C 60.082031 138.378906 48.613281 165.570312 48.429688 198.890625 C 48.148438 246.621094 101.90625 263.324219 102.453125 263.488281 C 102.570312 263.523438 102.6875 263.566406 102.800781 263.613281 C 128.441406 274.863281 167.808594 291.109375 180.316406 293.859375 C 180.320312 293.859375 180.320312 293.863281 180.328125 293.863281 C 181.515625 294.125 182.480469 294.269531 183.148438 294.269531 C 193.273438 294.269531 200.871094 289.691406 200.949219 289.648438 C 201.003906 289.613281 201.070312 289.613281 201.125 289.582031 C 201.28125 289.5 201.441406 289.460938 201.609375 289.40625 C 201.820312 289.339844 202.019531 289.265625 202.234375 289.242188 C 202.410156 289.222656 202.578125 289.25 202.753906 289.265625 C 202.960938 289.277344 203.164062 289.285156 203.359375 289.339844 C 203.535156 289.386719 203.6875 289.480469 203.851562 289.558594 C 204.042969 289.652344 204.226562 289.738281 204.398438 289.871094 C 204.441406 289.90625 204.492188 289.914062 204.535156 289.949219 C 204.625 290.027344 205.339844 290.664062 206.242188 291.808594 C 207.371094 292.71875 209.382812 293.746094 212.484375 293.332031 C 217.523438 292.652344 218.679688 290.074219 218.722656 289.964844 C 219.042969 289.210938 219.679688 288.5625 220.441406 288.265625 C 221.203125 287.964844 222.078125 287.9375 222.828125 288.277344 C 226.328125 289.867188 236.609375 293.550781 242.03125 291.453125 C 248.011719 289.15625 248.929688 282.96875 248.96875 282.707031 C 249.09375 281.789062 249.628906 280.976562 250.421875 280.5 C 251.210938 280.027344 252.171875 279.929688 253.042969 280.25 C 253.152344 280.292969 264.675781 284.421875 269.988281 278.105469 C 275.175781 271.9375 268.410156 262.035156 268.339844 261.9375 C 267.679688 260.980469 267.617188 259.722656 268.1875 258.710938 C 268.757812 257.695312 269.949219 257.117188 271.019531 257.15625 C 277.492188 257.542969 288.1875 256.8125 290.570312 254.011719 C 293.511719 250.5625 291.183594 247.105469 291.085938 246.964844 C 290.921875 246.726562 290.796875 246.46875 290.707031 246.207031 C 290.707031 246.207031 290.707031 246.203125 290.707031 246.203125 C 290.707031 246.195312 290.707031 246.195312 290.703125 246.1875 C 290.589844 245.851562 290.558594 245.5 290.570312 245.148438 C 290.574219 245.050781 290.582031 244.957031 290.59375 244.863281 C 290.628906 244.5625 290.707031 244.269531 290.835938 243.984375 C 290.855469 243.945312 290.859375 243.902344 290.882812 243.859375 C 290.886719 243.847656 290.886719 243.835938 290.894531 243.824219 C 291.050781 243.523438 291.265625 243.269531 291.503906 243.046875 C 291.570312 242.980469 291.648438 242.929688 291.722656 242.871094 C 291.953125 242.691406 292.203125 242.542969 292.476562 242.433594 C 292.527344 242.414062 292.5625 242.371094 292.617188 242.351562 C 298.152344 240.484375 312.742188 233.9375 313.777344 226.121094 Z M 313.777344 226.121094 " fill-opacity="1" fill-rule="nonzero"/><path fill="#000000" d="M 319.808594 226.921875 C 319.097656 232.304688 315.011719 236.71875 310.328125 240.117188 C 315.203125 238.90625 319.824219 237.054688 322.46875 234.261719 C 327.578125 228.867188 328.921875 222.058594 329.253906 218.300781 L 317.792969 218.078125 C 319.335938 220.394531 320.285156 223.335938 319.808594 226.921875 Z M 319.808594 226.921875 " fill-opacity="1" fill-rule="nonzero"/><path fill="#000000" d="M 315.488281 178.878906 C 318.90625 181.136719 321.894531 184.785156 322.832031 190.539062 C 324.433594 200.40625 321.378906 207.445312 317.507812 211.992188 L 332.449219 212.28125 C 332.527344 212.28125 332.59375 212.324219 332.667969 212.332031 C 332.730469 212.335938 332.792969 212.304688 332.859375 212.316406 C 333.035156 212.351562 337.886719 212.972656 342.492188 209.453125 C 346.84375 206.121094 349.585938 200.1875 350.644531 191.804688 C 352.226562 179.265625 347.046875 171.484375 344.621094 168.601562 Z M 315.488281 178.878906 " fill-opacity="1" fill-rule="nonzero"/><path fill="#000000" d="M 213.292969 299.359375 C 212.097656 299.519531 211 299.523438 209.96875 299.445312 C 210.425781 301.332031 210.644531 303.46875 210.421875 305.847656 C 209.605469 314.542969 189.230469 346.480469 185.152344 352.792969 C 182.417969 357.84375 183.570312 364.246094 188.078125 368.160156 C 188.628906 368.636719 189.085938 369.183594 189.453125 369.773438 L 201.28125 369.773438 C 202.789062 369.773438 203.496094 368.738281 203.730469 368.296875 C 203.964844 367.851562 204.421875 366.683594 203.566406 365.441406 L 200.375 360.792969 C 197.9375 357.246094 197.726562 352.710938 199.816406 348.960938 C 212.332031 326.488281 220.707031 309.667969 221.152344 306.109375 C 221.589844 302.601562 220.042969 299.570312 218.789062 297.753906 C 217.332031 298.464844 215.542969 299.058594 213.292969 299.359375 Z M 213.292969 299.359375 " fill-opacity="1" fill-rule="nonzero"/><path fill="#000000" d="M 179.925781 349.691406 C 189.167969 335.355469 203.84375 310.851562 204.363281 305.28125 C 204.773438 300.945312 203.097656 297.785156 201.828125 296.042969 C 198.605469 297.585938 192.238281 300.046875 184.414062 300.296875 L 187.335938 309.058594 C 187.578125 309.78125 187.535156 310.570312 187.226562 311.265625 L 168.238281 353.570312 C 166.332031 357.816406 162.472656 360.808594 157.910156 361.582031 C 148.929688 363.089844 142.023438 365 138.460938 366.953125 C 137.09375 367.707031 135.75 368.695312 134.46875 369.882812 C 133.351562 370.921875 133.679688 372.171875 133.875 372.664062 C 134.207031 373.511719 135.054688 374.425781 136.417969 374.425781 L 183.457031 374.425781 C 184.007812 374.425781 184.25 374.085938 184.359375 373.800781 C 184.460938 373.519531 184.503906 373.105469 184.085938 372.746094 C 177.414062 366.945312 175.707031 357.464844 179.925781 349.691406 Z M 179.925781 349.691406 " fill-opacity="1" fill-rule="nonzero"/><path fill="#000000" d="M 79.539062 62.628906 C 81.714844 62.1875 86.597656 60.5 87.796875 58.125 C 88.058594 57.601562 88.277344 56.820312 87.628906 55.417969 C 85.503906 50.835938 81.175781 47.996094 75.449219 47.417969 C 68.171875 46.703125 57.929688 50.011719 50.402344 58.742188 C 55.445312 63.878906 56.558594 69.871094 56.136719 75.125 C 57.765625 75.769531 59.394531 76.410156 61 77.078125 C 73.230469 82.167969 79.320312 84.015625 82.3125 78.890625 C 85.523438 73.394531 78.648438 68.285156 78.355469 68.070312 C 77.382812 67.359375 76.917969 66.140625 77.175781 64.964844 C 77.429688 63.789062 78.359375 62.875 79.539062 62.628906 Z M 67.539062 64.503906 C 64.136719 64.503906 61.378906 61.746094 61.378906 58.34375 C 61.378906 54.9375 64.136719 52.179688 67.539062 52.179688 C 70.941406 52.179688 73.703125 54.9375 73.703125 58.34375 C 73.703125 61.746094 70.941406 64.503906 67.539062 64.503906 Z M 67.539062 64.503906 " fill-opacity="1" fill-rule="nonzero"/></svg>