<svg xmlns="http://www.w3.org/2000/svg" xmlns:xlink="http://www.w3.org/1999/xlink" width="500" zoomAndPan="magnify" viewBox="0 0 375 374.999991" height="500" preserveAspectRatio="xMidYMid meet" version="1.0"><defs><clipPath id="922d3c249e"><path d="M 125 337 L 145 337 L 145 362.953125 L 125 362.953125 Z M 125 337 " clip-rule="nonzero"/></clipPath><clipPath id="85005d7f17"><path d="M 94 337 L 114 337 L 114 362.953125 L 94 362.953125 Z M 94 337 " clip-rule="nonzero"/></clipPath><clipPath id="b3a18a7b75"><path d="M 126 11.953125 L 238 11.953125 L 238 75 L 126 75 Z M 126 11.953125 " clip-rule="nonzero"/></clipPath><clipPath id="3a07ff1573"><path d="M 48 337 L 82 337 L 82 362.953125 L 48 362.953125 Z M 48 337 " clip-rule="nonzero"/></clipPath><clipPath id="886584a52c"><path d="M 219 337 L 239 337 L 239 362.953125 L 219 362.953125 Z M 219 337 " clip-rule="nonzero"/></clipPath><clipPath id="4f99a04985"><path d="M 251 337 L 270 337 L 270 362.953125 L 251 362.953125 Z M 251 337 " clip-rule="nonzero"/></clipPath><clipPath id="5d9ed87923"><path d="M 282 337 L 317 337 L 317 362.953125 L 282 362.953125 Z M 282 337 " clip-rule="nonzero"/></clipPath><clipPath id="5eeb2ee8db"><path d="M 157 337 L 176 337 L 176 362.953125 L 157 362.953125 Z M 157 337 " clip-rule="nonzero"/></clipPath><clipPath id="b2db74bfbe"><path d="M 188 337 L 208 337 L 208 362.953125 L 188 362.953125 Z M 188 337 " clip-rule="nonzero"/></clipPath></defs><g clip-path="url(#922d3c249e)"><path fill="#0f0e0c" d="M 125.707031 362.953125 L 144.515625 362.953125 L 144.515625 337.882812 L 125.707031 337.882812 L 125.707031 362.953125 " fill-opacity="1" fill-rule="nonzero"/></g><path fill="#0f0e0c" d="M 251.097656 149.847656 L 251.097656 168.648438 L 261.128906 161.128906 C 262.695312 159.953125 263.636719 158.074219 263.636719 156.113281 C 263.636719 152.660156 260.820312 149.847656 257.367188 149.847656 L 251.097656 149.847656 " fill-opacity="1" fill-rule="nonzero"/><path fill="#0f0e0c" d="M 56.628906 325.347656 L 81.820312 325.347656 L 81.820312 300.273438 L 63.597656 300.273438 L 56.628906 325.347656 " fill-opacity="1" fill-rule="nonzero"/><path fill="#0f0e0c" d="M 73.628906 264.15625 L 67.078125 287.738281 L 81.820312 287.738281 L 81.820312 258.296875 L 77.421875 259.980469 C 75.582031 260.691406 74.164062 262.253906 73.628906 264.15625 " fill-opacity="1" fill-rule="nonzero"/><g clip-path="url(#85005d7f17)"><path fill="#0f0e0c" d="M 94.359375 362.953125 L 113.167969 362.953125 L 113.167969 337.882812 L 94.359375 337.882812 L 94.359375 362.953125 " fill-opacity="1" fill-rule="nonzero"/></g><path fill="#0f0e0c" d="M 125.707031 325.347656 L 144.515625 325.347656 L 144.515625 300.273438 L 125.707031 300.273438 L 125.707031 325.347656 " fill-opacity="1" fill-rule="nonzero"/><path fill="#0f0e0c" d="M 94.359375 325.347656 L 113.167969 325.347656 L 113.167969 300.273438 L 94.359375 300.273438 L 94.359375 325.347656 " fill-opacity="1" fill-rule="nonzero"/><path fill="#0f0e0c" d="M 94.359375 287.738281 L 113.167969 287.738281 L 113.167969 246.238281 L 94.359375 253.476562 L 94.359375 287.738281 " fill-opacity="1" fill-rule="nonzero"/><path fill="#0f0e0c" d="M 100.628906 156.113281 C 100.628906 158.074219 101.566406 159.953125 103.136719 161.128906 L 113.167969 168.648438 L 113.167969 149.847656 L 106.898438 149.847656 C 103.441406 149.847656 100.628906 152.660156 100.628906 156.113281 " fill-opacity="1" fill-rule="nonzero"/><g clip-path="url(#b3a18a7b75)"><path fill="#0f0e0c" d="M 227.851562 17.191406 C 227.34375 14.15625 224.742188 11.953125 221.667969 11.953125 L 142.59375 11.953125 C 139.523438 11.953125 136.921875 14.15625 136.410156 17.191406 L 126.84375 74.632812 L 237.421875 74.632812 L 227.851562 17.191406 " fill-opacity="1" fill-rule="nonzero"/></g><path fill="#0f0e0c" d="M 286.839844 259.980469 L 282.953125 258.492188 L 282.445312 258.992188 L 282.445312 287.738281 L 297.183594 287.738281 L 290.632812 264.15625 C 290.101562 262.253906 288.683594 260.691406 286.839844 259.980469 " fill-opacity="1" fill-rule="nonzero"/><path fill="#0f0e0c" d="M 282.445312 325.347656 L 307.632812 325.347656 L 300.664062 300.273438 L 282.445312 300.273438 L 282.445312 325.347656 " fill-opacity="1" fill-rule="nonzero"/><g clip-path="url(#3a07ff1573)"><path fill="#0f0e0c" d="M 48.390625 355.007812 C 47.859375 356.914062 48.242188 358.902344 49.4375 360.476562 C 50.632812 362.050781 52.453125 362.953125 54.429688 362.953125 L 81.820312 362.953125 L 81.820312 337.882812 L 53.148438 337.882812 L 48.390625 355.007812 " fill-opacity="1" fill-rule="nonzero"/></g><path fill="#0f0e0c" d="M 94.359375 112.238281 L 269.90625 112.238281 C 276.816406 112.238281 282.445312 106.613281 282.445312 99.703125 C 282.445312 92.792969 276.816406 87.167969 269.90625 87.167969 L 94.359375 87.167969 C 87.445312 87.167969 81.820312 92.792969 81.820312 99.703125 C 81.820312 106.613281 87.445312 112.238281 94.359375 112.238281 " fill-opacity="1" fill-rule="nonzero"/><g clip-path="url(#886584a52c)"><path fill="#0f0e0c" d="M 219.75 362.953125 L 238.558594 362.953125 L 238.558594 337.882812 L 219.75 337.882812 L 219.75 362.953125 " fill-opacity="1" fill-rule="nonzero"/></g><g clip-path="url(#4f99a04985)"><path fill="#0f0e0c" d="M 251.097656 362.953125 L 269.90625 362.953125 L 269.90625 337.882812 L 251.097656 337.882812 L 251.097656 362.953125 " fill-opacity="1" fill-rule="nonzero"/></g><path fill="#0f0e0c" d="M 219.75 287.738281 L 238.558594 287.738281 L 238.558594 247.625 L 219.75 271.128906 L 219.75 287.738281 " fill-opacity="1" fill-rule="nonzero"/><path fill="#0f0e0c" d="M 219.75 325.347656 L 238.558594 325.347656 L 238.558594 300.273438 L 219.75 300.273438 L 219.75 325.347656 " fill-opacity="1" fill-rule="nonzero"/><path fill="#0f0e0c" d="M 125.707031 170.089844 C 125.707031 193.289062 139.632812 213.847656 161.175781 222.46875 C 174.6875 227.871094 189.578125 227.871094 203.085938 222.46875 C 224.632812 213.847656 238.558594 193.289062 238.558594 170.089844 L 238.558594 124.773438 L 125.707031 124.773438 L 125.707031 170.089844 " fill-opacity="1" fill-rule="nonzero"/><g clip-path="url(#5d9ed87923)"><path fill="#0f0e0c" d="M 311.121094 337.882812 L 282.445312 337.882812 L 282.445312 362.953125 L 309.835938 362.953125 C 311.808594 362.953125 313.628906 362.050781 314.828125 360.476562 C 316.015625 358.902344 316.402344 356.914062 315.875 355.007812 L 311.121094 337.882812 " fill-opacity="1" fill-rule="nonzero"/></g><path fill="#0f0e0c" d="M 251.097656 325.347656 L 269.90625 325.347656 L 269.90625 300.273438 L 251.097656 300.273438 L 251.097656 325.347656 " fill-opacity="1" fill-rule="nonzero"/><path fill="#0f0e0c" d="M 251.097656 287.738281 L 269.90625 287.738281 L 269.90625 253.476562 L 251.097656 246.238281 L 251.097656 287.738281 " fill-opacity="1" fill-rule="nonzero"/><path fill="#0f0e0c" d="M 157.054688 325.347656 L 175.863281 325.347656 L 175.863281 300.273438 L 157.054688 300.273438 L 157.054688 325.347656 " fill-opacity="1" fill-rule="nonzero"/><path fill="#0f0e0c" d="M 213.164062 231.65625 C 211.410156 232.542969 209.601562 233.363281 207.742188 234.101562 C 203.777344 235.691406 199.71875 236.882812 195.609375 237.707031 L 213.386719 259.023438 L 230.078125 238.160156 L 213.164062 231.65625 " fill-opacity="1" fill-rule="nonzero"/><g clip-path="url(#5eeb2ee8db)"><path fill="#0f0e0c" d="M 157.054688 362.953125 L 175.863281 362.953125 L 175.863281 337.882812 L 157.054688 337.882812 L 157.054688 362.953125 " fill-opacity="1" fill-rule="nonzero"/></g><g clip-path="url(#b2db74bfbe)"><path fill="#0f0e0c" d="M 188.402344 362.953125 L 207.210938 362.953125 L 207.210938 337.882812 L 188.402344 337.882812 L 188.402344 362.953125 " fill-opacity="1" fill-rule="nonzero"/></g><path fill="#0f0e0c" d="M 156.519531 234.101562 C 154.664062 233.363281 152.851562 232.542969 151.097656 231.65625 L 134.183594 238.160156 L 150.878906 259.023438 L 168.652344 237.707031 C 164.546875 236.882812 160.484375 235.691406 156.519531 234.101562 " fill-opacity="1" fill-rule="nonzero"/><path fill="#0f0e0c" d="M 125.707031 287.738281 L 144.515625 287.738281 L 144.515625 271.128906 L 125.707031 247.625 L 125.707031 287.738281 " fill-opacity="1" fill-rule="nonzero"/><path fill="#0f0e0c" d="M 188.402344 325.347656 L 207.210938 325.347656 L 207.210938 300.273438 L 188.402344 300.273438 L 188.402344 325.347656 " fill-opacity="1" fill-rule="nonzero"/><path fill="#0f0e0c" d="M 188.402344 275.203125 L 175.863281 275.203125 L 175.863281 262.667969 L 188.402344 262.667969 Z M 157.054688 271.199219 L 157.054688 287.738281 L 207.210938 287.738281 L 207.210938 271.199219 L 182.132812 241.121094 L 157.054688 271.199219 " fill-opacity="1" fill-rule="nonzero"/><path fill="#0f0e0c" d="M 365.78125 182.007812 L 332.914062 214.867188 C 325.078125 222.703125 313.117188 223.980469 303.933594 218.707031 L 355.84375 166.816406 L 346.972656 157.945312 L 295.070312 209.84375 C 289.796875 200.664062 291.074219 188.707031 298.910156 180.871094 L 331.777344 148.011719 L 322.914062 139.144531 L 290.046875 172.003906 C 277.484375 184.5625 275.996094 204.0625 285.5625 218.273438 L 265.484375 238.339844 L 279.851562 243.863281 L 295.5 228.210938 C 301.644531 232.347656 308.785156 234.421875 315.914062 234.421875 C 325.28125 234.421875 334.652344 230.859375 341.785156 223.726562 L 374.652344 190.867188 L 365.78125 182.007812 " fill-opacity="1" fill-rule="nonzero"/><path fill="#0f0e0c" d="M 78.503906 225.421875 L 84.25 213.933594 C 90.023438 202.386719 86.292969 188.347656 75.550781 181.183594 L 69.28125 187.453125 C 69.28125 175.707031 63.410156 164.730469 53.628906 158.222656 L 50.472656 156.113281 L 50.246094 156.339844 C 41.785156 164.800781 38.542969 176.5 40.515625 187.4375 L 17.285156 164.214844 L 8.421875 173.085938 L 33.070312 197.722656 C 21.726562 195.195312 9.371094 198.335938 0.542969 207.164062 L 0.316406 207.394531 L 2.421875 210.550781 C 8.9375 220.320312 19.914062 226.195312 31.664062 226.195312 L 25.394531 232.464844 C 32.558594 243.207031 46.597656 246.925781 58.152344 241.160156 L 70.394531 235.035156 L 84.019531 248.660156 L 94.664062 241.566406 L 78.503906 225.421875 " fill-opacity="1" fill-rule="nonzero"/></svg>