<svg xmlns="http://www.w3.org/2000/svg" xmlns:xlink="http://www.w3.org/1999/xlink" width="500" zoomAndPan="magnify" viewBox="0 0 375 374.999991" height="500" preserveAspectRatio="xMidYMid meet" version="1.0"><path fill="#000000" d="M 246.417969 194.714844 C 245.820312 195.320312 236.71875 204.898438 236.71875 227.21875 L 236.71875 245.820312 C 236.71875 272.914062 214.660156 294.960938 187.546875 294.960938 C 160.441406 294.960938 138.382812 272.914062 138.382812 245.820312 L 138.382812 227.21875 C 138.382812 204.949219 129.324219 195.371094 128.6875 194.730469 C 125.371094 191.609375 124.304688 186.871094 125.964844 182.628906 C 127.648438 178.34375 131.6875 175.582031 136.261719 175.582031 C 139.375 175.582031 142.472656 175.8125 145.523438 176.269531 C 145.675781 144.917969 154.851562 114.519531 172.078125 88.3125 C 173.761719 85.757812 176.0625 83.636719 178.75 82.1875 C 181.429688 80.734375 184.472656 79.964844 187.546875 79.964844 C 193.804688 79.964844 199.582031 83.085938 203.023438 88.3125 C 220.253906 114.523438 229.425781 144.917969 229.578125 176.269531 C 232.628906 175.8125 235.714844 175.582031 238.828125 175.582031 C 243.382812 175.582031 247.539062 178.4375 249.171875 182.691406 C 250.789062 186.917969 249.710938 191.625 246.417969 194.714844 Z M 354.191406 313.476562 L 324.210938 292.304688 C 337.925781 263.042969 345.78125 223.191406 345.882812 181.691406 C 345.992188 139.9375 338.175781 100.492188 324.3125 72.136719 L 353.570312 51.476562 C 357.511719 48.6875 359.113281 43.742188 357.550781 39.175781 C 355.984375 34.609375 351.671875 31.6875 346.859375 31.90625 L 326.3125 32.839844 L 311.03125 25.304688 C 277.785156 8.910156 240.769531 0.246094 203.972656 0.246094 L 171.140625 0.246094 C 134.34375 0.246094 97.328125 8.910156 64.082031 25.304688 L 48.800781 32.839844 L 28.253906 31.90625 C 23.425781 31.6875 19.128906 34.609375 17.5625 39.175781 C 16 43.742188 17.601562 48.6875 21.542969 51.476562 L 50.804688 72.136719 C 36.9375 100.492188 29.121094 139.9375 29.230469 181.691406 C 29.332031 223.191406 37.1875 263.042969 50.902344 292.304688 L 20.921875 313.476562 C 17.054688 316.210938 15.433594 321.074219 16.886719 325.582031 C 18.324219 330.0625 22.445312 333.058594 27.148438 333.058594 L 27.226562 333.058594 L 48.554688 332.886719 L 73.992188 346.382812 C 109.542969 365.25 148.546875 374.679688 187.558594 374.679688 C 226.558594 374.679688 265.570312 365.25 301.121094 346.382812 L 326.558594 332.886719 L 347.878906 333.058594 L 347.964844 333.058594 C 352.667969 333.058594 356.789062 330.0625 358.226562 325.582031 C 359.679688 321.074219 358.058594 316.210938 354.191406 313.476562 " fill-opacity="1" fill-rule="nonzero"/><path fill="#000000" d="M 214.816406 183.53125 L 200.203125 183.53125 L 200.203125 175.007812 L 214.792969 175.007812 C 214.804688 175.695312 214.816406 176.371094 214.816406 177.058594 Z M 214.816406 188.503906 C 210.453125 190.621094 206.410156 193.3125 202.785156 196.472656 L 200.203125 196.472656 L 200.203125 187.957031 L 214.816406 187.957031 Z M 195.773438 131.746094 L 179.328125 131.746094 L 179.328125 123.230469 L 195.773438 123.230469 Z M 195.773438 144.691406 L 179.328125 144.691406 L 179.328125 136.171875 L 195.773438 136.171875 Z M 195.773438 157.636719 L 179.328125 157.636719 L 179.328125 149.117188 L 195.773438 149.117188 Z M 195.773438 170.582031 L 179.328125 170.582031 L 179.328125 162.066406 L 195.773438 162.066406 Z M 195.773438 183.53125 L 179.328125 183.53125 L 179.328125 175.007812 L 195.773438 175.007812 Z M 195.773438 196.472656 L 179.328125 196.472656 L 179.328125 187.957031 L 195.773438 187.957031 Z M 195.773438 203.8125 C 192.355469 208.113281 189.5625 212.941406 187.546875 218.152344 C 185.535156 212.941406 182.742188 208.113281 179.328125 203.8125 L 179.328125 200.898438 L 195.773438 200.898438 Z M 174.898438 131.746094 L 167.4375 131.746094 C 168.371094 128.878906 169.390625 126.035156 170.496094 123.230469 L 174.898438 123.230469 Z M 174.898438 144.691406 L 163.886719 144.691406 C 164.53125 141.835938 165.261719 138.992188 166.082031 136.171875 L 174.898438 136.171875 Z M 174.898438 157.636719 L 161.570312 157.636719 C 161.953125 154.785156 162.410156 151.941406 162.957031 149.117188 L 174.898438 149.117188 Z M 174.898438 170.582031 L 160.433594 170.582031 C 160.558594 167.734375 160.765625 164.890625 161.054688 162.066406 L 174.898438 162.066406 Z M 174.898438 183.53125 L 160.289062 183.53125 L 160.289062 177.058594 C 160.289062 176.371094 160.292969 175.695312 160.308594 175.007812 L 174.898438 175.007812 Z M 174.898438 196.472656 L 172.3125 196.472656 C 168.683594 193.3125 164.648438 190.621094 160.289062 188.503906 L 160.289062 187.957031 L 174.898438 187.957031 Z M 176.34375 110.28125 L 185.332031 110.28125 L 185.332031 118.804688 L 172.332031 118.804688 C 173.574219 115.929688 174.910156 113.085938 176.34375 110.28125 Z M 184.417969 96.414062 C 185.121094 95.335938 186.265625 94.722656 187.546875 94.722656 C 188.835938 94.722656 189.980469 95.335938 190.679688 96.414062 C 192.710938 99.496094 194.617188 102.648438 196.394531 105.855469 L 178.707031 105.855469 C 180.484375 102.648438 182.390625 99.496094 184.417969 96.414062 Z M 198.757812 110.28125 C 200.1875 113.085938 201.527344 115.929688 202.765625 118.804688 L 189.761719 118.804688 L 189.761719 110.28125 Z M 207.660156 131.746094 L 200.203125 131.746094 L 200.203125 123.230469 L 204.601562 123.230469 C 205.710938 126.035156 206.726562 128.878906 207.660156 131.746094 Z M 211.210938 144.691406 L 200.203125 144.691406 L 200.203125 136.171875 L 209.019531 136.171875 C 209.835938 138.992188 210.570312 141.835938 211.210938 144.691406 Z M 213.527344 157.636719 L 200.203125 157.636719 L 200.203125 149.117188 L 212.140625 149.117188 C 212.6875 151.941406 213.144531 154.785156 213.527344 157.636719 Z M 214.664062 170.582031 L 200.203125 170.582031 L 200.203125 162.066406 L 214.042969 162.066406 C 214.332031 164.890625 214.539062 167.734375 214.664062 170.582031 Z M 238.828125 182.960938 C 233.035156 182.960938 227.445312 183.863281 222.199219 185.539062 L 222.199219 177.058594 C 222.199219 146.871094 213.433594 117.589844 196.851562 92.359375 C 194.785156 89.21875 191.304688 87.34375 187.546875 87.34375 C 185.671875 87.34375 183.855469 87.808594 182.261719 88.671875 C 180.671875 89.535156 179.28125 90.789062 178.246094 92.359375 C 161.664062 117.589844 152.90625 146.871094 152.90625 177.058594 L 152.90625 185.542969 C 147.652344 183.863281 142.058594 182.960938 136.261719 182.960938 C 134.75 182.960938 133.390625 183.90625 132.835938 185.316406 C 132.28125 186.734375 132.660156 188.347656 133.773438 189.382812 C 133.902344 189.492188 145.765625 200.765625 145.765625 227.21875 L 145.765625 245.820312 C 145.765625 268.847656 164.507812 287.582031 187.546875 287.582031 C 210.589844 287.582031 229.335938 268.847656 229.335938 245.820312 L 229.335938 227.21875 C 229.335938 200.847656 241.125 189.566406 241.316406 189.382812 C 242.4375 188.355469 242.824219 186.753906 242.277344 185.332031 C 241.730469 183.90625 240.367188 182.960938 238.828125 182.960938 " fill-opacity="1" fill-rule="nonzero"/></svg>