<svg xmlns="http://www.w3.org/2000/svg" xmlns:xlink="http://www.w3.org/1999/xlink" width="500" zoomAndPan="magnify" viewBox="0 0 375 374.999991" height="500" preserveAspectRatio="xMidYMid meet" version="1.0"><defs><clipPath id="406844d86b"><path d="M 0 19 L 345 19 L 345 364.265625 L 0 364.265625 Z M 0 19 " clip-rule="nonzero"/></clipPath><clipPath id="97b52bc374"><path d="M 262 11.015625 L 360 11.015625 L 360 99 L 262 99 Z M 262 11.015625 " clip-rule="nonzero"/></clipPath></defs><path fill="#000000" d="M 372.5 169.40625 L 351.777344 122.820312 L 358.902344 166.476562 C 359.316406 169.15625 359.414062 171.851562 359.1875 174.554688 C 358.964844 177.261719 358.425781 179.902344 357.578125 182.480469 C 356.726562 185.058594 355.585938 187.5 354.15625 189.808594 C 352.726562 192.113281 351.046875 194.222656 349.117188 196.132812 L 218.121094 327.273438 L 267.503906 348.976562 C 269.578125 350.039062 271.785156 350.570312 274.113281 350.5625 L 274.136719 350.5625 C 275.640625 350.542969 277.113281 350.320312 278.554688 349.898438 C 279.996094 349.476562 281.355469 348.871094 282.632812 348.078125 C 283.910156 347.285156 285.058594 346.335938 286.078125 345.226562 C 287.09375 344.121094 287.945312 342.898438 288.632812 341.5625 L 372.050781 184.550781 C 372.679688 183.394531 373.164062 182.179688 373.507812 180.910156 C 373.847656 179.640625 374.039062 178.347656 374.078125 177.03125 C 374.117188 175.714844 374.003906 174.414062 373.738281 173.125 C 373.472656 171.835938 373.058594 170.597656 372.5 169.40625 Z M 372.5 169.40625 " fill-opacity="1" fill-rule="nonzero"/><path fill="#000000" d="M 160.214844 161.921875 C 161.816406 161.59375 163.332031 161.035156 164.761719 160.242188 C 166.191406 159.449219 167.472656 158.464844 168.601562 157.28125 C 169.785156 156.152344 170.769531 154.871094 171.5625 153.4375 C 172.351562 152.007812 172.910156 150.492188 173.238281 148.886719 C 173.425781 148.105469 173.441406 147.316406 173.285156 146.527344 C 173.128906 145.738281 172.816406 145.015625 172.34375 144.363281 C 171.449219 143.609375 170.417969 143.269531 169.25 143.351562 C 168.769531 143.351562 168.292969 143.390625 167.820312 143.464844 C 166.230469 143.832031 164.722656 144.40625 163.296875 145.195312 C 161.871094 145.984375 160.582031 146.957031 159.429688 148.109375 C 158.277344 149.261719 157.308594 150.554688 156.519531 151.980469 C 155.730469 153.40625 155.15625 154.914062 154.789062 156.503906 C 154.628906 156.882812 154.527344 157.277344 154.484375 157.6875 C 154.441406 158.097656 154.460938 158.507812 154.539062 158.910156 C 154.617188 159.316406 154.75 159.699219 154.945312 160.066406 C 155.136719 160.429688 155.378906 160.757812 155.671875 161.050781 C 155.960938 161.339844 156.289062 161.585938 156.652344 161.777344 C 157.015625 161.972656 157.398438 162.109375 157.800781 162.191406 C 158.207031 162.269531 158.613281 162.289062 159.023438 162.246094 C 159.433594 162.207031 159.828125 162.105469 160.207031 161.945312 Z M 160.214844 161.921875 " fill-opacity="1" fill-rule="nonzero"/><path fill="#000000" d="M 172.097656 236.324219 C 170.214844 236.472656 168.425781 236.957031 166.726562 237.777344 C 165.027344 238.597656 163.535156 239.703125 162.25 241.085938 C 157.558594 245.78125 156.386719 251.890625 158.5 254.007812 C 159.15625 254.476562 159.875 254.789062 160.664062 254.945312 C 161.457031 255.101562 162.242188 255.085938 163.023438 254.898438 C 164.625 254.570312 166.140625 254.011719 167.570312 253.21875 C 169 252.425781 170.28125 251.441406 171.410156 250.257812 C 172.59375 249.128906 173.578125 247.847656 174.371094 246.414062 C 175.160156 244.984375 175.71875 243.46875 176.046875 241.863281 C 176.234375 241.082031 176.25 240.292969 176.09375 239.503906 C 175.9375 238.714844 175.621094 237.992188 175.152344 237.339844 C 174.273438 236.585938 173.253906 236.246094 172.097656 236.324219 Z M 172.097656 236.324219 " fill-opacity="1" fill-rule="nonzero"/><path fill="#000000" d="M 288.957031 187.117188 L 177.492188 75.574219 C 177.152344 75.234375 176.757812 74.96875 176.316406 74.785156 C 175.871094 74.601562 175.410156 74.511719 174.929688 74.511719 C 174.449219 74.511719 173.984375 74.601562 173.542969 74.785156 C 173.097656 74.96875 172.707031 75.234375 172.367188 75.574219 L 41.90625 206.136719 C 41.566406 206.476562 41.304688 206.871094 41.121094 207.3125 C 40.9375 207.757812 40.84375 208.21875 40.84375 208.703125 C 40.84375 209.183594 40.9375 209.644531 41.121094 210.089844 C 41.304688 210.535156 41.566406 210.925781 41.90625 211.265625 L 153.375 322.824219 C 153.714844 323.164062 154.105469 323.429688 154.550781 323.613281 C 154.992188 323.796875 155.457031 323.886719 155.9375 323.886719 C 156.417969 323.886719 156.878906 323.796875 157.324219 323.613281 C 157.765625 323.429688 158.15625 323.164062 158.496094 322.824219 L 288.957031 192.261719 C 289.300781 191.921875 289.5625 191.527344 289.75 191.082031 C 289.933594 190.636719 290.027344 190.171875 290.027344 189.691406 C 290.027344 189.207031 289.933594 188.742188 289.75 188.296875 C 289.5625 187.851562 289.300781 187.457031 288.957031 187.117188 Z M 140.488281 154.191406 C 140.789062 152.652344 141.203125 151.144531 141.726562 149.667969 C 142.253906 148.1875 142.882812 146.757812 143.621094 145.375 C 144.359375 143.988281 145.191406 142.667969 146.125 141.40625 C 147.058594 140.148438 148.078125 138.960938 149.1875 137.855469 C 150.292969 136.746094 151.476562 135.722656 152.738281 134.789062 C 153.996094 133.855469 155.316406 133.019531 156.699219 132.285156 C 158.082031 131.546875 159.511719 130.914062 160.988281 130.390625 C 162.464844 129.863281 163.972656 129.449219 165.511719 129.148438 C 166.265625 128.976562 167.027344 128.855469 167.800781 128.78125 C 168.570312 128.707031 169.34375 128.683594 170.117188 128.707031 C 170.890625 128.730469 171.660156 128.804688 172.425781 128.925781 C 173.191406 129.042969 173.945312 129.214844 174.691406 129.429688 C 175.433594 129.644531 176.160156 129.90625 176.871094 130.214844 C 177.582031 130.519531 178.273438 130.871094 178.9375 131.265625 C 179.605469 131.660156 180.246094 132.097656 180.855469 132.570312 C 181.46875 133.046875 182.050781 133.558594 182.597656 134.105469 C 183.144531 134.652344 183.65625 135.234375 184.128906 135.847656 C 184.605469 136.460938 185.039062 137.097656 185.433594 137.765625 C 185.828125 138.433594 186.179688 139.121094 186.484375 139.835938 C 186.792969 140.546875 187.054688 141.273438 187.269531 142.019531 C 187.484375 142.761719 187.652344 143.519531 187.773438 144.285156 C 187.894531 145.050781 187.96875 145.820312 187.992188 146.59375 C 188.015625 147.367188 187.988281 148.140625 187.914062 148.914062 C 187.84375 149.6875 187.71875 150.449219 187.550781 151.207031 C 186.984375 154.3125 185.957031 157.257812 184.472656 160.042969 C 182.988281 162.832031 181.113281 165.324219 178.851562 167.527344 C 176.652344 169.789062 174.160156 171.664062 171.378906 173.152344 C 168.59375 174.636719 165.648438 175.664062 162.546875 176.230469 C 161.316406 176.429688 160.078125 176.53125 158.832031 176.535156 C 157.597656 176.5625 156.375 176.464844 155.160156 176.25 C 153.949219 176.03125 152.765625 175.695312 151.621094 175.246094 C 150.472656 174.792969 149.378906 174.234375 148.34375 173.566406 C 147.308594 172.894531 146.347656 172.132812 145.460938 171.273438 C 144.398438 170.152344 143.480469 168.917969 142.707031 167.578125 C 141.9375 166.234375 141.335938 164.820312 140.902344 163.335938 C 140.472656 161.851562 140.21875 160.335938 140.148438 158.789062 C 140.082031 157.242188 140.195312 155.710938 140.492188 154.191406 Z M 190.382812 244.183594 C 189.8125 247.289062 188.789062 250.234375 187.300781 253.019531 C 185.816406 255.808594 183.945312 258.300781 181.683594 260.503906 C 179.484375 262.765625 176.992188 264.640625 174.207031 266.128906 C 171.421875 267.613281 168.480469 268.640625 165.375 269.207031 C 164.144531 269.40625 162.90625 269.507812 161.660156 269.511719 C 160.429688 269.539062 159.207031 269.441406 157.992188 269.226562 C 156.777344 269.007812 155.597656 268.671875 154.449219 268.222656 C 153.304688 267.769531 152.210938 267.210938 151.175781 266.542969 C 150.136719 265.871094 149.179688 265.109375 148.292969 264.25 C 139.976562 255.925781 141.621094 241.238281 152.035156 230.808594 C 162.453125 220.382812 177.132812 218.738281 185.449219 227.0625 C 186.511719 228.191406 187.429688 229.425781 188.199219 230.769531 C 188.96875 232.117188 189.566406 233.535156 189.996094 235.023438 C 190.425781 236.511719 190.671875 238.03125 190.738281 239.578125 C 190.800781 241.128906 190.683594 242.664062 190.382812 244.183594 Z M 219.8125 206.695312 C 219.75 207.125 219.65625 207.546875 219.519531 207.960938 C 219.386719 208.371094 219.214844 208.769531 219.007812 209.152344 C 218.800781 209.535156 218.5625 209.894531 218.292969 210.234375 C 218.023438 210.574219 217.722656 210.886719 217.394531 211.171875 C 217.070312 211.457031 216.71875 211.710938 216.347656 211.933594 C 215.976562 212.15625 215.585938 212.34375 215.179688 212.496094 C 214.773438 212.648438 214.355469 212.765625 213.929688 212.84375 C 213.503906 212.917969 213.074219 212.957031 212.640625 212.960938 C 212.304688 212.960938 211.96875 212.9375 211.640625 212.890625 L 117.25 199.851562 C 116.777344 199.785156 116.320312 199.675781 115.867188 199.519531 C 115.417969 199.363281 114.988281 199.167969 114.578125 198.925781 C 114.167969 198.683594 113.785156 198.40625 113.429688 198.089844 C 113.070312 197.773438 112.75 197.425781 112.464844 197.046875 C 112.175781 196.667969 111.929688 196.261719 111.71875 195.832031 C 111.511719 195.40625 111.347656 194.960938 111.226562 194.5 C 111.109375 194.039062 111.035156 193.570312 111.003906 193.09375 C 110.976562 192.621094 110.996094 192.144531 111.0625 191.671875 C 111.125 191.203125 111.238281 190.742188 111.390625 190.289062 C 111.546875 189.839844 111.746094 189.410156 111.988281 189 C 112.226562 188.589844 112.503906 188.203125 112.820312 187.847656 C 113.136719 187.492188 113.484375 187.171875 113.863281 186.882812 C 114.246094 186.59375 114.648438 186.347656 115.078125 186.140625 C 115.503906 185.929688 115.949219 185.765625 116.410156 185.644531 C 116.871094 185.527344 117.335938 185.453125 117.8125 185.421875 C 118.289062 185.394531 118.761719 185.414062 119.234375 185.480469 L 213.617188 198.519531 C 214.089844 198.585938 214.550781 198.695312 215 198.851562 C 215.449219 199.007812 215.878906 199.207031 216.289062 199.445312 C 216.699219 199.6875 217.082031 199.964844 217.4375 200.28125 C 217.792969 200.597656 218.117188 200.945312 218.402344 201.324219 C 218.691406 201.707031 218.9375 202.109375 219.148438 202.539062 C 219.355469 202.964844 219.519531 203.410156 219.640625 203.871094 C 219.757812 204.332031 219.832031 204.800781 219.863281 205.273438 C 219.890625 205.75 219.871094 206.222656 219.808594 206.695312 Z M 219.8125 206.695312 " fill-opacity="1" fill-rule="nonzero"/><g clip-path="url(#406844d86b)"><path fill="#000000" d="M 325.726562 53.085938 C 325.234375 50.097656 324.035156 47.421875 322.132812 45.066406 C 316.183594 47.222656 311.019531 50.585938 306.636719 55.144531 C 303.824219 57.695312 301.484375 60.617188 299.613281 63.921875 C 297.742188 67.226562 296.441406 70.738281 295.703125 74.460938 C 296.289062 75.269531 296.828125 76.109375 297.316406 76.980469 C 297.804688 77.851562 298.238281 78.75 298.621094 79.671875 C 299.003906 80.59375 299.328125 81.535156 299.601562 82.496094 C 299.871094 83.457031 300.085938 84.433594 300.242188 85.417969 C 300.398438 86.40625 300.496094 87.398438 300.535156 88.394531 C 300.574219 89.390625 300.554688 90.390625 300.476562 91.386719 C 300.398438 92.378906 300.261719 93.367188 300.066406 94.347656 C 299.875 95.328125 299.621094 96.292969 299.3125 97.242188 C 299.003906 98.191406 298.640625 99.121094 298.222656 100.027344 C 297.804688 100.933594 297.335938 101.8125 296.816406 102.664062 C 296.292969 103.515625 295.722656 104.332031 295.105469 105.117188 C 294.488281 105.902344 293.824219 106.648438 293.121094 107.351562 C 292.414062 108.058594 291.667969 108.71875 290.886719 109.339844 C 290.101562 109.957031 289.285156 110.527344 288.433594 111.046875 C 287.582031 111.570312 286.703125 112.039062 285.796875 112.457031 C 284.890625 112.875 283.960938 113.238281 283.011719 113.546875 C 282.0625 113.851562 281.101562 114.105469 280.121094 114.296875 C 279.140625 114.492188 278.15625 114.628906 277.160156 114.707031 C 276.164062 114.785156 275.167969 114.804688 274.171875 114.761719 C 273.175781 114.722656 272.183594 114.625 271.199219 114.46875 C 270.214844 114.308594 269.242188 114.097656 268.28125 113.824219 C 267.320312 113.550781 266.378906 113.222656 265.457031 112.839844 C 264.535156 112.457031 263.640625 112.023438 262.769531 111.535156 C 261.898438 111.042969 261.0625 110.507812 260.253906 109.917969 C 259.449219 109.332031 258.679688 108.695312 257.945312 108.019531 C 257.214844 107.339844 256.523438 106.621094 255.878906 105.859375 C 255.230469 105.101562 254.628906 104.304688 254.078125 103.472656 C 253.523438 102.640625 253.019531 101.78125 252.570312 100.890625 C 252.117188 100 251.71875 99.085938 251.375 98.148438 C 251.03125 97.210938 250.742188 96.257812 250.511719 95.285156 C 250.28125 94.3125 250.105469 93.332031 249.992188 92.339844 C 249.875 91.347656 249.820312 90.351562 249.820312 89.355469 C 249.820312 88.929688 249.867188 88.515625 249.890625 88.097656 C 245.484375 70.40625 250.9375 49.484375 265.070312 31.203125 L 195.78125 19.878906 C 194.796875 19.71875 193.804688 19.636719 192.804688 19.640625 C 191.496094 19.652344 190.199219 19.796875 188.917969 20.0625 C 187.632812 20.332031 186.390625 20.71875 185.183594 21.230469 C 183.976562 21.742188 182.832031 22.367188 181.746094 23.101562 C 180.664062 23.835938 179.660156 24.671875 178.738281 25.601562 L 6.484375 197.957031 C 4.695312 199.722656 3.289062 201.753906 2.261719 204.050781 C 1.234375 206.347656 0.664062 208.753906 0.542969 211.265625 C 0.476562 212.484375 0.539062 213.695312 0.726562 214.902344 C 0.914062 216.105469 1.226562 217.28125 1.660156 218.421875 C 2.09375 219.558594 2.640625 220.644531 3.300781 221.667969 C 3.964844 222.691406 4.722656 223.636719 5.582031 224.503906 L 140.113281 359.140625 C 141.765625 360.78125 143.671875 362.035156 145.828125 362.910156 C 147.984375 363.785156 150.222656 364.210938 152.550781 364.1875 C 153.863281 364.175781 155.160156 364.039062 156.445312 363.769531 C 157.726562 363.503906 158.972656 363.117188 160.183594 362.605469 C 161.390625 362.097656 162.539062 361.476562 163.625 360.738281 C 164.710938 360.003906 165.714844 359.171875 166.640625 358.242188 L 338.871094 185.875 C 339.984375 184.78125 340.957031 183.570312 341.789062 182.246094 C 342.617188 180.921875 343.28125 179.519531 343.777344 178.039062 C 344.273438 176.558594 344.589844 175.039062 344.726562 173.480469 C 344.867188 171.925781 344.820312 170.375 344.589844 168.828125 Z M 299.210938 202.511719 L 168.75 333.074219 C 168.332031 333.496094 167.890625 333.894531 167.433594 334.269531 C 166.972656 334.648438 166.496094 335 166.003906 335.332031 C 165.511719 335.660156 165.003906 335.964844 164.480469 336.246094 C 163.957031 336.523438 163.417969 336.777344 162.871094 337.007812 C 162.324219 337.234375 161.765625 337.433594 161.199219 337.605469 C 160.628906 337.777344 160.054688 337.921875 159.472656 338.039062 C 158.890625 338.152344 158.304688 338.242188 157.714844 338.300781 C 157.121094 338.355469 156.53125 338.386719 155.9375 338.386719 C 155.34375 338.386719 154.753906 338.355469 154.160156 338.300781 C 153.570312 338.242188 152.984375 338.152344 152.402344 338.039062 C 151.820312 337.921875 151.246094 337.777344 150.679688 337.605469 C 150.109375 337.433594 149.550781 337.234375 149.003906 337.007812 C 148.457031 336.777344 147.917969 336.523438 147.394531 336.246094 C 146.871094 335.964844 146.363281 335.660156 145.871094 335.332031 C 145.378906 335 144.902344 334.648438 144.441406 334.269531 C 143.984375 333.894531 143.542969 333.496094 143.125 333.074219 L 31.65625 221.507812 C 31.238281 221.085938 30.839844 220.648438 30.464844 220.1875 C 30.089844 219.730469 29.738281 219.253906 29.40625 218.757812 C 29.078125 218.265625 28.773438 217.757812 28.496094 217.230469 C 28.214844 216.707031 27.964844 216.171875 27.738281 215.625 C 27.507812 215.074219 27.308594 214.515625 27.136719 213.949219 C 26.964844 213.378906 26.824219 212.804688 26.707031 212.222656 C 26.589844 211.640625 26.503906 211.054688 26.445312 210.464844 C 26.390625 209.871094 26.359375 209.28125 26.359375 208.6875 C 26.359375 208.09375 26.390625 207.5 26.445312 206.910156 C 26.503906 206.320312 26.589844 205.734375 26.707031 205.152344 C 26.824219 204.570312 26.964844 203.992188 27.136719 203.425781 C 27.308594 202.855469 27.507812 202.296875 27.738281 201.75 C 27.964844 201.203125 28.214844 200.664062 28.496094 200.140625 C 28.773438 199.617188 29.078125 199.109375 29.40625 198.613281 C 29.738281 198.121094 30.089844 197.644531 30.464844 197.183594 C 30.839844 196.726562 31.238281 196.285156 31.65625 195.867188 L 162.117188 65.300781 C 162.539062 64.882812 162.976562 64.484375 163.433594 64.109375 C 163.894531 63.730469 164.371094 63.378906 164.863281 63.050781 C 165.355469 62.71875 165.863281 62.414062 166.386719 62.136719 C 166.910156 61.855469 167.445312 61.601562 167.992188 61.375 C 168.542969 61.148438 169.101562 60.949219 169.667969 60.777344 C 170.234375 60.605469 170.808594 60.460938 171.390625 60.34375 C 171.972656 60.230469 172.558594 60.144531 173.148438 60.085938 C 173.738281 60.027344 174.332031 59.996094 174.921875 59.996094 C 175.515625 59.996094 176.109375 60.027344 176.699219 60.085938 C 177.289062 60.144531 177.875 60.230469 178.457031 60.34375 C 179.039062 60.460938 179.613281 60.605469 180.179688 60.777344 C 180.746094 60.949219 181.304688 61.148438 181.851562 61.375 C 182.398438 61.601562 182.9375 61.855469 183.457031 62.136719 C 183.980469 62.414062 184.488281 62.71875 184.984375 63.050781 C 185.476562 63.378906 185.953125 63.730469 186.410156 64.109375 C 186.871094 64.484375 187.308594 64.882812 187.726562 65.300781 L 299.210938 176.863281 C 299.628906 177.28125 300.027344 177.722656 300.402344 178.179688 C 300.78125 178.640625 301.132812 179.117188 301.460938 179.609375 C 301.789062 180.105469 302.09375 180.613281 302.375 181.136719 C 302.652344 181.660156 302.90625 182.199219 303.132812 182.746094 C 303.359375 183.296875 303.558594 183.855469 303.734375 184.421875 C 303.90625 184.992188 304.046875 185.566406 304.164062 186.148438 C 304.28125 186.730469 304.367188 187.316406 304.425781 187.910156 C 304.484375 188.5 304.511719 189.09375 304.511719 189.6875 C 304.511719 190.28125 304.484375 190.871094 304.425781 191.464844 C 304.367188 192.054688 304.28125 192.640625 304.164062 193.222656 C 304.046875 193.804688 303.90625 194.382812 303.734375 194.949219 C 303.558594 195.519531 303.359375 196.078125 303.132812 196.625 C 302.90625 197.175781 302.652344 197.710938 302.375 198.234375 C 302.09375 198.757812 301.789062 199.265625 301.460938 199.761719 C 301.132812 200.253906 300.78125 200.730469 300.402344 201.191406 C 300.027344 201.652344 299.628906 202.089844 299.210938 202.511719 Z M 299.210938 202.511719 " fill-opacity="1" fill-rule="nonzero"/></g><g clip-path="url(#97b52bc374)"><path fill="#000000" d="M 350.222656 20.265625 C 348.710938 18.800781 347.074219 17.503906 345.304688 16.371094 C 343.535156 15.238281 341.671875 14.292969 339.714844 13.53125 C 337.757812 12.773438 335.742188 12.214844 333.671875 11.863281 C 331.601562 11.507812 329.519531 11.363281 327.417969 11.425781 C 324.039062 11.441406 320.699219 11.820312 317.402344 12.5625 C 310.960938 14.152344 304.863281 16.605469 299.113281 19.917969 C 293.363281 23.230469 288.183594 27.273438 283.574219 32.050781 C 263.640625 52 257.25 78.355469 268.40625 94.683594 C 268.730469 95.199219 269.105469 95.679688 269.523438 96.121094 C 269.945312 96.5625 270.40625 96.960938 270.90625 97.308594 C 271.40625 97.65625 271.9375 97.953125 272.5 98.195312 C 273.058594 98.4375 273.636719 98.621094 274.234375 98.746094 C 274.832031 98.871094 275.4375 98.933594 276.046875 98.933594 C 276.65625 98.9375 277.261719 98.878906 277.859375 98.761719 C 278.457031 98.640625 279.039062 98.460938 279.601562 98.226562 C 280.160156 97.988281 280.695312 97.699219 281.199219 97.351562 C 281.703125 97.007812 282.167969 96.617188 282.589844 96.179688 C 283.015625 95.738281 283.390625 95.261719 283.71875 94.75 C 284.050781 94.234375 284.324219 93.691406 284.542969 93.121094 C 284.761719 92.550781 284.921875 91.964844 285.019531 91.363281 C 285.121094 90.761719 285.160156 90.15625 285.140625 89.542969 C 285.117188 88.933594 285.035156 88.332031 284.890625 87.738281 C 284.746094 87.144531 284.546875 86.570312 284.289062 86.019531 C 284.027344 85.464844 283.714844 84.945312 283.351562 84.453125 C 278.171875 76.875 281.679688 59.59375 296.375 44.882812 C 299.757812 41.328125 303.5625 38.3125 307.792969 35.828125 C 312.023438 33.34375 316.515625 31.492188 321.265625 30.273438 C 323.273438 29.820312 325.308594 29.589844 327.363281 29.578125 C 329.203125 29.460938 330.996094 29.703125 332.734375 30.3125 C 334.476562 30.921875 336.03125 31.847656 337.394531 33.089844 C 341.925781 37.621094 341.097656 45.144531 340.203125 49.230469 C 339.882812 50.671875 339.480469 52.085938 338.992188 53.476562 L 343.820312 81.121094 L 346.398438 77.613281 C 349.140625 73.972656 351.484375 70.085938 353.421875 65.957031 C 355.359375 61.832031 356.855469 57.546875 357.902344 53.109375 C 360.824219 39.804688 358.09375 28.144531 350.222656 20.265625 Z M 350.222656 20.265625 " fill-opacity="1" fill-rule="nonzero"/></g></svg>