<svg xmlns="http://www.w3.org/2000/svg" xmlns:xlink="http://www.w3.org/1999/xlink" width="500" zoomAndPan="magnify" viewBox="0 0 375 374.999991" height="500" preserveAspectRatio="xMidYMid meet" version="1.0"><path fill="#000000" d="M 326.988281 318.132812 L 324.804688 318.117188 C 323.574219 318.121094 322.367188 318.402344 321.285156 318.976562 L 294.199219 333.347656 C 227.421875 368.777344 147.6875 368.777344 80.914062 333.347656 L 53.828125 318.976562 C 52.765625 318.414062 51.574219 318.117188 50.367188 318.117188 C 50.347656 318.117188 50.332031 318.117188 50.308594 318.117188 L 48.125 318.132812 C 45.578125 318.152344 44.523438 314.882812 46.601562 313.414062 L 64.578125 300.71875 C 67.597656 298.589844 68.574219 294.554688 66.867188 291.277344 C 36.289062 232.695312 36.257812 128.816406 66.800781 73.351562 C 68.609375 70.070312 67.640625 65.957031 64.578125 63.792969 L 48.414062 52.378906 C 46.296875 50.882812 47.441406 47.546875 50.03125 47.664062 L 50.035156 47.664062 C 51.277344 47.71875 52.519531 47.460938 53.636719 46.910156 L 70.613281 38.539062 C 101.839844 23.144531 136.601562 15.003906 171.136719 15.003906 L 203.976562 15.003906 C 238.515625 15.003906 273.277344 23.144531 304.5 38.539062 L 321.480469 46.910156 C 322.597656 47.460938 323.839844 47.722656 325.082031 47.664062 C 327.671875 47.546875 328.816406 50.882812 326.699219 52.378906 L 310.535156 63.792969 C 307.464844 65.960938 306.515625 70.085938 308.324219 73.378906 C 338.855469 128.847656 338.820312 232.707031 308.246094 291.277344 C 306.539062 294.554688 307.515625 298.589844 310.535156 300.71875 L 328.511719 313.414062 C 330.589844 314.882812 329.535156 318.152344 326.988281 318.132812 Z M 354.1875 313.476562 L 324.210938 292.308594 C 337.929688 263.042969 345.78125 223.191406 345.886719 181.691406 C 345.992188 139.941406 338.175781 100.492188 324.308594 72.136719 L 353.570312 51.472656 C 357.515625 48.683594 359.113281 43.746094 357.546875 39.175781 C 355.980469 34.613281 351.667969 31.6875 346.859375 31.90625 L 326.308594 32.835938 L 311.035156 25.304688 C 277.789062 8.910156 240.765625 0.246094 203.976562 0.246094 L 171.136719 0.246094 C 134.347656 0.246094 97.328125 8.910156 64.082031 25.304688 L 48.804688 32.835938 L 28.253906 31.90625 C 23.429688 31.6875 19.132812 34.613281 17.566406 39.175781 C 16 43.746094 17.597656 48.683594 21.546875 51.472656 L 50.804688 72.136719 C 36.9375 100.492188 29.121094 139.941406 29.226562 181.691406 C 29.332031 223.191406 37.1875 263.042969 50.902344 292.308594 L 20.925781 313.476562 C 17.058594 316.207031 15.433594 321.074219 16.882812 325.582031 C 18.328125 330.058594 22.445312 333.054688 27.148438 333.054688 C 27.175781 333.054688 27.203125 333.054688 27.234375 333.054688 L 48.554688 332.886719 L 73.988281 346.382812 C 109.542969 365.246094 148.550781 374.679688 187.558594 374.679688 C 226.5625 374.679688 265.570312 365.246094 301.125 346.382812 L 326.558594 332.886719 L 347.878906 333.054688 C 347.910156 333.054688 347.9375 333.054688 347.964844 333.054688 C 352.667969 333.054688 356.785156 330.058594 358.230469 325.582031 C 359.679688 321.074219 358.058594 316.207031 354.1875 313.476562 " fill-opacity="1" fill-rule="nonzero"/><path fill="#000000" d="M 221.953125 227.21875 L 221.953125 245.820312 C 221.953125 263.539062 208.480469 278.160156 191.242188 280.011719 L 191.242188 237.910156 C 191.242188 214.394531 208.40625 194.804688 230.878906 191.011719 C 226.804688 197.726562 221.953125 209.457031 221.953125 227.21875 Z M 179.328125 203.8125 L 179.328125 200.898438 L 195.777344 200.898438 L 195.777344 203.8125 C 192.359375 208.113281 189.570312 212.941406 187.550781 218.152344 C 185.539062 212.941406 182.746094 208.113281 179.328125 203.8125 Z M 183.859375 280.011719 C 166.625 278.160156 153.148438 263.539062 153.148438 245.820312 L 153.148438 227.21875 C 153.148438 209.457031 148.300781 197.726562 144.222656 191.011719 C 166.695312 194.804688 183.859375 214.394531 183.859375 237.910156 Z M 160.289062 187.957031 L 174.898438 187.957031 L 174.898438 196.472656 L 172.316406 196.472656 C 168.691406 193.3125 164.652344 190.621094 160.289062 188.503906 Z M 160.289062 177.058594 C 160.289062 176.371094 160.296875 175.695312 160.308594 175.007812 L 174.898438 175.007812 L 174.898438 183.53125 L 160.289062 183.53125 Z M 161.058594 162.066406 L 174.898438 162.066406 L 174.898438 170.582031 L 160.4375 170.582031 C 160.5625 167.734375 160.769531 164.890625 161.058594 162.066406 Z M 162.960938 149.117188 L 174.898438 149.117188 L 174.898438 157.636719 L 161.574219 157.636719 C 161.957031 154.785156 162.414062 151.941406 162.960938 149.117188 Z M 166.082031 136.171875 L 174.898438 136.171875 L 174.898438 144.691406 L 163.890625 144.691406 C 164.53125 141.835938 165.265625 138.992188 166.082031 136.171875 Z M 170.5 123.230469 L 174.898438 123.230469 L 174.898438 131.746094 L 167.441406 131.746094 C 168.375 128.878906 169.390625 126.035156 170.5 123.230469 Z M 176.34375 110.28125 L 185.335938 110.28125 L 185.335938 118.804688 L 172.339844 118.804688 C 173.574219 115.929688 174.914062 113.085938 176.34375 110.28125 Z M 184.421875 96.414062 C 185.121094 95.335938 186.269531 94.722656 187.550781 94.722656 C 188.835938 94.722656 189.980469 95.335938 190.683594 96.414062 C 192.714844 99.496094 194.617188 102.648438 196.398438 105.855469 L 178.710938 105.855469 C 180.488281 102.648438 182.390625 99.496094 184.421875 96.414062 Z M 179.328125 131.746094 L 179.328125 123.230469 L 195.777344 123.230469 L 195.777344 131.746094 Z M 179.328125 144.691406 L 179.328125 136.171875 L 195.777344 136.171875 L 195.777344 144.691406 Z M 179.328125 157.636719 L 179.328125 149.117188 L 195.777344 149.117188 L 195.777344 157.636719 Z M 179.328125 170.582031 L 179.328125 162.066406 L 195.777344 162.066406 L 195.777344 170.582031 Z M 195.777344 187.957031 L 195.777344 196.472656 L 179.328125 196.472656 L 179.328125 187.957031 Z M 179.328125 183.53125 L 179.328125 175.007812 L 195.777344 175.007812 L 195.777344 183.53125 Z M 198.761719 110.28125 C 200.191406 113.085938 201.527344 115.929688 202.769531 118.804688 L 189.765625 118.804688 L 189.765625 110.28125 Z M 207.664062 131.746094 L 200.207031 131.746094 L 200.207031 123.230469 L 204.605469 123.230469 C 205.714844 126.035156 206.734375 128.878906 207.664062 131.746094 Z M 211.214844 144.691406 L 200.207031 144.691406 L 200.207031 136.171875 L 209.019531 136.171875 C 209.839844 138.992188 210.574219 141.835938 211.214844 144.691406 Z M 213.53125 157.636719 L 200.207031 157.636719 L 200.207031 149.117188 L 212.144531 149.117188 C 212.691406 151.941406 213.148438 154.785156 213.53125 157.636719 Z M 214.671875 170.582031 L 200.207031 170.582031 L 200.207031 162.066406 L 214.050781 162.066406 C 214.335938 164.890625 214.542969 167.734375 214.671875 170.582031 Z M 214.816406 187.957031 L 214.816406 188.503906 C 210.453125 190.621094 206.417969 193.3125 202.792969 196.472656 L 200.207031 196.472656 L 200.207031 187.957031 Z M 214.816406 177.058594 L 214.816406 183.53125 L 200.207031 183.53125 L 200.207031 175.007812 L 214.792969 175.007812 C 214.808594 175.695312 214.816406 176.371094 214.816406 177.058594 Z M 238.832031 182.960938 C 233.039062 182.960938 227.449219 183.863281 222.199219 185.539062 L 222.199219 177.058594 C 222.199219 146.871094 213.4375 117.589844 196.855469 92.359375 C 194.789062 89.21875 191.3125 87.34375 187.550781 87.34375 C 185.675781 87.34375 183.859375 87.808594 182.269531 88.671875 C 180.671875 89.535156 179.285156 90.789062 178.25 92.359375 C 161.667969 117.589844 152.90625 146.871094 152.90625 177.058594 L 152.90625 185.542969 C 147.65625 183.863281 142.0625 182.960938 136.265625 182.960938 C 134.753906 182.960938 133.394531 183.90625 132.84375 185.316406 C 132.289062 186.734375 132.664062 188.347656 133.777344 189.382812 C 133.902344 189.492188 145.765625 200.765625 145.765625 227.21875 L 145.765625 245.820312 C 145.765625 268.847656 164.511719 287.582031 187.550781 287.582031 C 210.59375 287.582031 229.335938 268.847656 229.335938 245.820312 L 229.335938 227.21875 C 229.335938 200.847656 241.125 189.566406 241.320312 189.382812 C 242.441406 188.355469 242.824219 186.753906 242.28125 185.332031 C 241.734375 183.90625 240.367188 182.960938 238.832031 182.960938 " fill-opacity="1" fill-rule="nonzero"/></svg>