<svg xmlns="http://www.w3.org/2000/svg" xmlns:xlink="http://www.w3.org/1999/xlink" width="500" zoomAndPan="magnify" viewBox="0 0 375 374.999991" height="500" preserveAspectRatio="xMidYMid meet" version="1.0"><defs><clipPath id="e53670b46e"><path d="M 0 3.222656 L 375 3.222656 L 375 371.472656 L 0 371.472656 Z M 0 3.222656 " clip-rule="nonzero"/></clipPath></defs><path fill="#0f0e0c" d="M 180.054688 273.269531 L 192.335938 273.269531 L 192.335938 260.996094 L 180.054688 260.996094 L 180.054688 273.269531 " fill-opacity="1" fill-rule="nonzero"/><g clip-path="url(#e53670b46e)"><path fill="#0f0e0c" d="M 281.90625 242.582031 L 267.835938 237.175781 L 287.5 217.527344 C 288.765625 219.40625 290.226562 221.203125 291.890625 222.867188 C 293.558594 224.53125 295.351562 225.988281 297.234375 227.253906 Z M 298.882812 285.546875 L 284.445312 285.546875 L 284.445312 257.398438 L 284.945312 256.90625 L 288.75 258.363281 C 290.554688 259.0625 291.945312 260.589844 292.46875 262.453125 Z M 302.292969 297.820312 L 309.117188 322.371094 L 284.445312 322.371094 L 284.445312 297.820312 Z M 317.191406 351.417969 C 317.703125 353.28125 317.328125 355.230469 316.164062 356.773438 C 314.988281 358.3125 313.207031 359.195312 311.273438 359.195312 L 284.445312 359.195312 L 284.445312 334.644531 L 312.53125 334.644531 Z M 272.164062 285.546875 L 253.742188 285.546875 L 253.742188 244.910156 L 257.527344 246.367188 L 258.085938 246.925781 L 258.332031 246.671875 L 272.164062 251.996094 Z M 272.164062 322.371094 L 253.742188 322.371094 L 253.742188 297.820312 L 272.164062 297.820312 Z M 272.164062 359.195312 L 253.742188 359.195312 L 253.742188 334.644531 L 272.164062 334.644531 Z M 241.460938 285.546875 L 223.039062 285.546875 L 223.039062 269.28125 L 241.460938 246.265625 Z M 241.460938 322.371094 L 223.039062 322.371094 L 223.039062 297.820312 L 241.460938 297.820312 Z M 241.460938 359.195312 L 223.039062 359.195312 L 223.039062 334.644531 L 241.460938 334.644531 Z M 199.398438 236.554688 C 203.417969 235.75 207.394531 234.582031 211.28125 233.023438 C 213.097656 232.304688 214.871094 231.496094 216.589844 230.632812 L 233.15625 237 L 216.804688 257.429688 Z M 210.757812 285.546875 L 161.632812 285.546875 L 161.632812 269.351562 L 186.195312 239.898438 L 210.757812 269.351562 Z M 210.757812 322.371094 L 192.335938 322.371094 L 192.335938 297.820312 L 210.757812 297.820312 Z M 210.757812 359.195312 L 192.335938 359.195312 L 192.335938 334.644531 L 210.757812 334.644531 Z M 180.054688 322.371094 L 161.632812 322.371094 L 161.632812 297.820312 L 180.054688 297.820312 Z M 180.054688 359.195312 L 161.632812 359.195312 L 161.632812 334.644531 L 180.054688 334.644531 Z M 139.234375 237 L 155.800781 230.632812 C 157.519531 231.496094 159.292969 232.304688 161.109375 233.023438 C 164.996094 234.582031 168.96875 235.75 172.992188 236.554688 L 155.582031 257.429688 Z M 149.351562 285.546875 L 130.929688 285.546875 L 130.929688 246.265625 L 149.351562 269.28125 Z M 149.351562 322.371094 L 130.929688 322.371094 L 130.929688 297.820312 L 149.351562 297.820312 Z M 149.351562 359.195312 L 130.929688 359.195312 L 130.929688 334.644531 L 149.351562 334.644531 Z M 118.648438 285.546875 L 100.226562 285.546875 L 100.226562 251.996094 L 118.648438 244.910156 Z M 118.648438 322.371094 L 100.226562 322.371094 L 100.226562 297.820312 L 118.648438 297.820312 Z M 118.648438 359.195312 L 100.226562 359.195312 L 100.226562 334.644531 L 118.648438 334.644531 Z M 130.929688 170.34375 L 130.929688 125.972656 L 241.460938 125.972656 L 241.460938 170.34375 C 241.460938 193.0625 227.820312 213.191406 206.71875 221.632812 C 193.488281 226.925781 178.902344 226.925781 165.671875 221.632812 C 144.570312 213.191406 130.929688 193.0625 130.929688 170.34375 Z M 100.226562 113.695312 C 93.457031 113.695312 87.945312 108.1875 87.945312 101.421875 C 87.945312 94.65625 93.457031 89.144531 100.226562 89.144531 L 272.164062 89.144531 C 278.933594 89.144531 284.445312 94.65625 284.445312 101.421875 C 284.445312 108.1875 278.933594 113.695312 272.164062 113.695312 Z M 141.414062 20.621094 C 141.914062 17.652344 144.460938 15.492188 147.46875 15.492188 L 224.917969 15.492188 C 227.929688 15.492188 230.476562 17.652344 230.976562 20.621094 L 240.347656 76.867188 L 132.042969 76.867188 Z M 259.882812 150.519531 C 263.269531 150.519531 266.023438 153.277344 266.023438 156.660156 C 266.023438 158.578125 265.101562 160.417969 263.566406 161.570312 L 253.742188 168.933594 L 253.742188 150.519531 Z M 87.945312 285.546875 L 73.507812 285.546875 L 79.921875 262.453125 C 80.445312 260.589844 81.835938 259.0625 83.636719 258.363281 L 87.945312 256.714844 Z M 87.945312 322.371094 L 63.273438 322.371094 L 70.097656 297.820312 L 87.945312 297.820312 Z M 87.945312 359.195312 L 61.117188 359.195312 C 59.179688 359.195312 57.398438 358.3125 56.226562 356.773438 C 55.058594 355.230469 54.683594 353.28125 55.203125 351.417969 L 59.863281 334.644531 L 87.945312 334.644531 Z M 84.835938 210.53125 L 80.121094 219.953125 L 79.316406 219.144531 C 71.933594 211.765625 71.933594 199.75 79.316406 192.371094 L 82.117188 189.570312 C 87.09375 195.234375 88.34375 203.527344 84.835938 210.53125 Z M 62.019531 234.445312 C 55.003906 237.949219 46.710938 236.699219 41.046875 231.734375 L 43.847656 228.933594 C 51.234375 221.554688 63.25 221.554688 70.636719 228.933594 L 71.441406 229.734375 Z M 16.273438 207.945312 C 27.3125 200.082031 42.78125 201.09375 52.679688 210.984375 L 53.101562 211.40625 C 47.089844 212.203125 41.265625 214.742188 36.460938 219.03125 C 28.460938 218.371094 21.132812 214.359375 16.273438 207.945312 Z M 58.316406 164.8125 C 64.738281 169.671875 68.746094 176.988281 69.414062 184.992188 C 65.125 189.792969 62.582031 195.609375 61.785156 201.625 L 61.359375 201.195312 C 51.464844 191.304688 50.449219 175.847656 58.316406 164.8125 Z M 118.648438 168.933594 L 108.824219 161.570312 C 107.289062 160.417969 106.367188 158.578125 106.367188 156.660156 C 106.367188 153.277344 109.121094 150.519531 112.507812 150.519531 L 118.648438 150.519531 Z M 317.230469 233.339844 C 326.402344 233.339844 335.582031 229.847656 342.566406 222.867188 L 374.757812 190.691406 L 366.070312 182.015625 L 333.878906 214.191406 C 326.203125 221.863281 314.488281 223.113281 305.492188 217.949219 L 356.335938 167.136719 L 347.648438 158.453125 L 296.8125 209.273438 C 291.644531 200.28125 292.898438 188.574219 300.574219 180.902344 L 332.765625 148.726562 L 324.082031 140.042969 L 291.890625 172.21875 C 282.902344 181.199219 279.710938 193.804688 282.28125 205.375 L 255.292969 232.355469 L 229.300781 222.359375 C 240.707031 212.96875 248.714844 200.074219 252.03125 185.558594 L 270.9375 171.390625 C 275.550781 167.929688 278.304688 162.429688 278.304688 156.660156 C 278.304688 146.507812 270.039062 138.246094 259.882812 138.246094 L 253.742188 138.246094 L 253.742188 125.972656 L 272.164062 125.972656 C 285.703125 125.972656 296.726562 114.953125 296.726562 101.421875 C 296.726562 87.886719 285.703125 76.871094 272.164062 76.871094 L 252.804688 76.871094 L 243.089844 18.605469 C 241.597656 9.691406 233.960938 3.222656 224.917969 3.222656 L 147.46875 3.222656 C 138.429688 3.222656 130.789062 9.691406 129.300781 18.605469 L 119.585938 76.871094 L 100.226562 76.871094 C 86.6875 76.871094 75.664062 87.886719 75.664062 101.421875 C 75.664062 114.953125 86.6875 125.972656 100.226562 125.972656 L 118.648438 125.972656 L 118.648438 138.246094 L 112.507812 138.246094 C 102.351562 138.246094 94.085938 146.507812 94.085938 156.660156 C 94.085938 162.429688 96.839844 167.929688 101.453125 171.390625 L 120.359375 185.558594 C 123.675781 200.074219 131.679688 212.96875 143.085938 222.359375 L 99.359375 239.167969 L 89.273438 229.097656 L 95.820312 216.023438 C 102.84375 201.976562 98.285156 184.816406 85.210938 176.097656 L 81.019531 173.3125 L 79.738281 174.59375 C 76.9375 166.125 71.386719 158.707031 63.742188 153.613281 L 56.457031 148.765625 L 52.679688 152.539062 C 44.90625 160.308594 40.960938 170.46875 40.828125 180.671875 L 24.738281 164.589844 L 16.054688 173.277344 L 33.253906 190.46875 C 22.675781 190.316406 12.050781 194.257812 3.996094 202.304688 L 0.214844 206.089844 L 5.070312 213.363281 C 10.167969 221.011719 17.589844 226.558594 26.058594 229.355469 L 24.777344 230.636719 L 27.570312 234.820312 C 33.527344 243.757812 43.433594 248.707031 53.59375 248.707031 C 58.300781 248.707031 63.0625 247.648438 67.511719 245.421875 L 81.328125 238.519531 L 83.484375 240.664062 L 86.816406 243.996094 L 79.226562 246.910156 C 73.8125 248.996094 69.644531 253.578125 68.09375 259.171875 L 43.367188 348.132812 C 41.8125 353.71875 42.9375 359.578125 46.449219 364.199219 C 49.964844 368.824219 55.308594 371.472656 61.117188 371.472656 L 311.273438 371.472656 C 317.082031 371.472656 322.425781 368.824219 325.941406 364.199219 C 329.457031 359.578125 330.578125 353.71875 329.019531 348.132812 L 304.296875 259.171875 C 302.867188 254.015625 299.207031 249.71875 294.402344 247.449219 L 309.394531 232.472656 C 311.972656 233.039062 314.597656 233.339844 317.230469 233.339844 " fill-opacity="1" fill-rule="nonzero"/></g></svg>