<svg xmlns="http://www.w3.org/2000/svg" xmlns:xlink="http://www.w3.org/1999/xlink" width="500" zoomAndPan="magnify" viewBox="0 0 375 374.999991" height="500" preserveAspectRatio="xMidYMid meet" version="1.0"><defs><clipPath id="1377d90f55"><path d="M 30 1 L 345.515625 1 L 345.515625 374 L 30 374 Z M 30 1 " clip-rule="nonzero"/></clipPath></defs><g clip-path="url(#1377d90f55)"><path fill="#100f0d" d="M 59.664062 45.585938 C 61.644531 45.6875 63.65625 45.917969 65.601562 46.34375 C 65.007812 47.367188 64.480469 48.421875 63.984375 49.507812 C 62.863281 54.253906 62.433594 59.097656 62.699219 63.972656 C 53.035156 63.347656 43.734375 60.019531 35.886719 54.386719 C 35.523438 54.089844 35.457031 53.59375 35.722656 53.230469 C 35.753906 53.167969 35.820312 53.101562 35.886719 53.035156 C 42.679688 47.828125 51.121094 45.191406 59.695312 45.585938 Z M 96.996094 33 C 100.160156 32.96875 103.359375 33.398438 106.394531 34.320312 C 110.054688 35.375 113.253906 37.648438 115.496094 40.710938 C 134.425781 66.640625 147.75 96.230469 154.609375 127.566406 C 156.820312 137.550781 165.460938 144.765625 175.683594 145.09375 C 190.191406 145.589844 204.210938 150.398438 215.949219 158.933594 C 220.402344 162.160156 226.503906 162.0625 230.855469 158.667969 C 260.207031 135.902344 298.328125 127.695312 334.441406 136.429688 C 337.542969 137.1875 339.816406 139.824219 340.082031 142.984375 C 340.640625 149.246094 338.53125 155.40625 334.277344 160.019531 C 331.144531 163.445312 330.152344 168.355469 331.769531 172.707031 C 338.761719 191.683594 330.683594 212.9375 312.808594 222.460938 C 307.5625 225.226562 305.058594 231.355469 306.804688 236.988281 C 315.414062 265.195312 299.515625 295.046875 271.289062 303.644531 C 266.207031 305.195312 260.933594 305.953125 255.65625 305.953125 C 250.90625 305.953125 246.554688 308.652344 244.476562 312.90625 C 236.132812 329.9375 215.554688 336.957031 198.503906 328.621094 C 191.90625 325.390625 186.5 320.121094 183.101562 313.5625 C 181.289062 310.039062 177.890625 307.601562 173.96875 307.007812 C 164.007812 305.523438 155.269531 299.527344 150.289062 290.796875 C 148.476562 287.566406 145.308594 285.324219 141.648438 284.699219 C 85.980469 274.980469 48.75 222.03125 58.476562 166.445312 C 60.09375 157.1875 62.960938 148.191406 67.050781 139.722656 C 76.550781 119.953125 77.734375 97.21875 70.316406 76.59375 C 67.382812 68.453125 66.820312 59.589844 68.734375 51.15625 C 73.945312 40.21875 84.894531 33.164062 96.996094 33 Z M 100.886719 6.90625 C 104.746094 6.9375 108.339844 8.949219 110.351562 12.242188 C 111.703125 14.417969 114.210938 15.605469 116.75 15.242188 C 125.257812 14.023438 133.140625 19.886719 134.359375 28.386719 C 135.414062 35.503906 131.390625 42.425781 124.664062 45.0625 C 122.984375 42.589844 121.300781 40.152344 119.554688 37.777344 C 116.652344 33.792969 112.527344 30.890625 107.8125 29.507812 C 96.863281 26.28125 85.058594 28.324219 75.824219 35.011719 C 70.382812 31.058594 69.195312 23.445312 73.152344 18.042969 C 75.988281 14.121094 80.902344 12.277344 85.617188 13.332031 C 87.992188 13.859375 90.5 12.96875 92.015625 11.089844 C 94.191406 8.421875 97.425781 6.871094 100.886719 6.90625 Z M 101.28125 1.898438 C 96.238281 1.832031 91.457031 4.039062 88.324219 7.960938 L 88.125 7.960938 C 87.761719 8.386719 87.199219 8.585938 86.671875 8.453125 C 77.40625 6.476562 68.269531 12.34375 66.257812 21.601562 C 64.941406 27.796875 67.117188 34.21875 71.933594 38.304688 C 70.746094 39.460938 69.65625 40.679688 68.601562 41.964844 C 56.234375 38.667969 43.011719 41.304688 32.820312 49.113281 C 30.28125 51.089844 29.882812 54.78125 31.863281 57.285156 C 32.226562 57.746094 32.65625 58.140625 33.148438 58.472656 C 41.988281 64.832031 52.507812 68.488281 63.390625 69.015625 C 63.886719 72.179688 64.710938 75.273438 65.796875 78.273438 C 72.757812 97.648438 71.667969 119 62.730469 137.550781 C 37.039062 190.894531 59.5 254.945312 112.925781 280.613281 C 121.796875 284.863281 131.226562 287.894531 140.957031 289.609375 C 143.164062 289.972656 145.046875 291.324219 146.132812 293.265625 C 151.871094 303.347656 161.929688 310.234375 173.375 311.949219 C 175.75 312.3125 177.792969 313.761719 178.882812 315.871094 C 185.246094 328.128906 197.546875 336.167969 211.332031 337.054688 L 211.332031 360.679688 C 211.332031 364.765625 208 368.09375 203.914062 368.09375 L 193.953125 368.09375 C 192.566406 368.128906 191.480469 369.28125 191.546875 370.664062 C 191.578125 371.984375 192.632812 373.035156 193.953125 373.070312 L 203.914062 373.070312 C 210.773438 373.070312 216.3125 367.535156 216.3125 360.679688 L 216.3125 337.054688 C 230.394531 336.167969 242.957031 327.796875 249.160156 315.113281 C 250.410156 312.574219 253.015625 310.960938 255.820312 310.960938 C 288.074219 310.992188 314.257812 284.898438 314.292969 252.640625 C 314.292969 246.875 313.46875 241.109375 311.753906 235.574219 C 310.730469 232.179688 312.214844 228.523438 315.347656 226.875 C 335.398438 216.164062 344.5 192.34375 336.652344 170.992188 C 335.695312 168.390625 336.289062 165.488281 338.167969 163.445312 C 343.34375 157.78125 345.917969 150.203125 345.257812 142.558594 C 344.796875 137.253906 340.972656 132.835938 335.792969 131.585938 C 298.230469 122.523438 258.523438 131.023438 228.019531 154.75 C 225.414062 156.792969 221.753906 156.855469 219.082031 154.914062 C 206.515625 145.785156 191.546875 140.644531 176.011719 140.117188 C 168.097656 139.855469 161.371094 134.253906 159.65625 126.511719 C 153.652344 99.097656 142.804688 72.96875 127.632812 49.34375 C 137.988281 44.664062 142.570312 32.539062 137.921875 22.195312 C 134.128906 13.859375 125.324219 9.015625 116.253906 10.332031 C 115.660156 10.398438 115.101562 10.132812 114.804688 9.640625 C 111.902344 4.960938 106.789062 2.027344 101.28125 1.929688 L 101.28125 1.898438 " fill-opacity="1" fill-rule="nonzero"/></g><path fill="#100f0d" d="M 98.25 55.605469 C 98.28125 52.703125 95.972656 50.332031 93.070312 50.300781 C 90.203125 50.300781 87.828125 52.605469 87.792969 55.472656 C 87.792969 55.539062 87.792969 55.570312 87.792969 55.605469 C 87.761719 58.503906 90.070312 60.84375 92.972656 60.875 C 95.875 60.910156 98.214844 58.601562 98.25 55.734375 C 98.25 55.671875 98.25 55.636719 98.25 55.605469 " fill-opacity="1" fill-rule="nonzero"/><path fill="#100f0d" d="M 153.390625 203.382812 C 154.9375 216.5625 161.039062 228.753906 170.667969 237.878906 C 140.855469 233.792969 118.628906 208.324219 118.695312 178.242188 C 118.664062 176.855469 117.542969 175.769531 116.15625 175.769531 C 114.804688 175.804688 113.714844 176.890625 113.683594 178.242188 C 113.617188 213.695312 142.011719 242.691406 177.496094 243.449219 C 194.050781 254.882812 215.453125 256.726562 233.726562 248.257812 C 240.980469 253.828125 249.191406 258.078125 257.898438 260.8125 C 265.417969 263.152344 273.464844 259.492188 276.628906 252.3125 C 283.160156 237.351562 277.851562 219.890625 264.132812 211.058594 C 262.910156 210.398438 261.394531 210.859375 260.734375 212.082031 C 260.171875 213.167969 260.46875 214.519531 261.460938 215.277344 C 273.101562 222.753906 277.621094 237.617188 272.046875 250.300781 C 269.933594 255.175781 264.492188 257.648438 259.414062 256.066406 C 240.816406 250.203125 225.25 237.1875 216.214844 219.890625 C 215.554688 218.703125 214.035156 218.273438 212.847656 218.933594 C 211.695312 219.59375 211.234375 221.007812 211.792969 222.195312 C 216.246094 230.695312 222.214844 238.339844 229.371094 244.699219 C 202.890625 255.472656 172.648438 242.789062 161.863281 216.296875 C 160.117188 211.980469 158.929688 207.433594 158.402344 202.789062 C 158.238281 201.4375 157.015625 200.417969 155.632812 200.582031 C 154.246094 200.710938 153.257812 201.964844 153.390625 203.347656 C 153.390625 203.347656 153.390625 203.382812 153.390625 203.382812 " fill-opacity="1" fill-rule="nonzero"/></svg>